<svg width="500" height="362" viewBox="0 0 500 362" fill="none" xmlns="http://www.w3.org/2000/svg">
<path d="M63.5698 332.821C63.5598 332.918 63.5671 333.01 63.5619 333.106H62.1058C59.549 327.12 58.8337 320.119 60.2721 313.851C61.8303 307.041 65.8086 300.766 71.3954 296.295C73.3827 294.706 75.6074 293.318 78.1017 292.659C80.9537 291.901 84.1995 292.17 86.528 294.009C87.2874 294.607 87.8824 295.396 88.1024 296.316C88.6955 298.818 86.4855 300.523 84.588 301.951C76.195 308.278 69.6146 316.783 65.745 326.312C64.9883 328.177 63.7949 330.623 63.5698 332.821Z" fill="url(#paint0_linear_558_3159)"/>
<path d="M63.5699 332.821C63.5599 332.918 63.5672 333.01 63.562 333.106H63.1259C60.2107 313.203 79.2125 297.882 79.4158 297.718C79.5277 297.634 79.6907 297.661 79.7761 297.751C79.8637 297.858 79.8503 298.008 79.7385 298.092C79.5369 298.255 60.8623 313.287 63.5699 332.821Z" fill="#ADC8F7"/>
<path d="M58.0225 333.045C50.4233 334.037 41.2771 332.177 32.7484 327.723C23.2608 322.774 14.1069 314.65 7.13887 305.001C4.66212 301.57 2.42061 297.887 1.12177 294.122C-0.367765 289.815 -0.528929 285.373 1.5877 282.854C2.27712 282.033 3.25003 281.518 4.46154 281.583C7.75851 281.767 10.4287 285.557 12.6724 288.798C22.6117 303.134 35.2119 315.813 48.7609 325.106C51.4129 326.924 54.9226 329.589 57.9395 330.797C58.8571 331.164 59.7236 331.39 60.5089 331.428L58.0225 333.045Z" fill="url(#paint1_linear_558_3159)"/>
<path d="M59.9994 331.759C32.8465 328.901 8.0308 294.691 7.77069 294.332C7.63883 294.141 7.64929 293.924 7.75696 293.84C7.88778 293.761 8.09383 293.841 8.22557 294.032C8.47848 294.38 31.8882 326.667 57.9399 330.797C58.8576 331.164 59.7241 331.39 60.5093 331.428L59.9994 331.759Z" fill="#ADC8F7"/>
<path d="M62.7334 275.632C59.9917 277.546 57.4826 279.859 57.0017 282.942C56.4664 286.887 63.3947 282.815 66.4268 281.848C68.0579 281.193 65.1497 285.315 63.794 286.526C62.3571 287.691 60.7066 288.457 59.2718 289.699C57.8009 290.89 55.3523 294.289 56.8643 294.884C57.6324 295.176 58.5696 294.147 59.2318 294.679C59.8919 295.206 60.1948 296.256 59.9872 297.215C59.7434 298.333 58.9189 299.172 58.1598 299.958C56.1434 302.149 55.2521 301.876 53.7672 305.708C53.4211 306.617 59.7858 303.485 62.288 301.373C65.3861 298.777 62.6603 307.355 57.284 313.804C56.5303 314.647 55.9764 315.764 55.6324 316.988C55.283 318.208 55.3593 319.791 56.1484 320.947C57.2241 322.513 59.0021 322.688 60.4181 323.643C62.1384 324.806 63.2774 327.003 63.8272 329.095C64.1014 330.22 63.6593 331.803 63.5568 333.106H55.8017L45.1324 329.816C43.9741 328.989 43.3225 327.968 43.5596 326.573C43.9363 324.746 45.7244 325.038 47.2254 325.704C48.7422 326.389 50.6573 326.821 51.0639 325.169C51.3245 324.134 50.8259 322.703 50.1238 321.698C49.4186 320.695 48.5301 320.019 47.675 319.343C45.4079 317.55 43.2302 315.559 41.1729 313.379C40.4345 312.596 39.6886 311.761 39.1902 310.596C38.689 309.434 38.5034 307.851 38.943 306.702C39.5447 305.135 40.9544 305.025 41.9844 305.718C43.018 306.413 43.8588 307.679 44.8389 308.604C45.817 309.536 47.0663 310.116 48.0617 309.443C49.4091 308.517 49.6715 305.769 49.1433 303.763C48.5981 301.754 47.4444 300.267 46.3983 298.755C43.3901 294.401 41.1075 289.096 40.0359 283.042C39.6602 281.022 39.7036 278.09 41.3991 276.252C43.2469 274.281 44.9652 275.711 45.3034 277.736C45.593 279.454 45.4551 281.542 46.0062 283.099C46.5584 284.663 48.111 285.474 49.4809 284.2C50.5403 283.224 51.049 281.535 51.5232 280.044C53.5748 273.525 56.9183 267.125 61.6795 261.254C62.6239 260.089 63.6638 258.909 64.9704 258.006C66.2752 257.099 67.91 256.544 68.8375 256.89C70.2037 257.411 69.3997 259.506 67.9886 261.063C66.5617 262.624 64.6965 263.853 63.0237 265.208C61.5272 266.415 60.0835 267.855 59.3543 269.46C58.6168 271.07 58.8511 272.776 60.0798 273.028C61.3778 273.294 63.1328 272.012 64.3988 270.654C65.6336 269.314 66.6848 267.757 68.2097 266.665C69.7395 265.563 71.9503 265.282 72.2247 266.498C72.4482 267.446 71.4839 268.685 70.605 269.702C68.5041 272.127 65.5026 273.68 62.7334 275.632Z" fill="url(#paint2_linear_558_3159)"/>
<path d="M60.5099 333.106H60.287C60.0451 332.761 59.8025 332.416 59.5704 332.066C56.8381 331.389 54.1032 330.514 51.3944 329.438C51.3396 329.416 51.2932 329.344 51.2908 329.278C51.2884 329.211 51.3309 329.175 51.3853 329.197C54.0399 330.259 56.7202 331.129 59.399 331.807C57.2167 328.485 55.4445 325.006 54.0838 321.485C51.2934 319.31 48.651 316.813 46.2227 314.014C46.1814 313.966 46.1701 313.883 46.197 313.829C46.2241 313.774 46.2792 313.768 46.3203 313.816C48.6791 316.547 51.2421 318.991 53.9477 321.13C50.804 312.886 50.0103 304.475 50.6324 297.37C48.8339 294.742 47.2333 291.885 45.878 288.825C45.8542 288.771 45.872 288.687 45.9176 288.638C45.9633 288.588 46.0192 288.591 46.0428 288.645C47.3612 291.644 48.9156 294.45 50.6616 297.036C51.2045 290.987 52.7027 285.908 54.082 282.315C54.0788 281.205 54.1134 280.084 54.1876 278.953C54.1918 278.889 54.2401 278.822 54.2952 278.803C54.3504 278.784 54.3914 278.82 54.3871 278.884C54.3208 279.868 54.2844 280.845 54.277 281.813C55.7042 278.226 56.8655 276.206 56.888 276.123C56.921 276.061 56.9853 276.022 57.0313 276.037C57.077 276.052 57.0881 276.115 57.0551 276.177C57.0339 276.263 55.7701 278.448 54.2692 282.313C54.2671 282.321 54.2639 282.328 54.2606 282.335C53.3108 284.812 52.2994 287.986 51.5877 291.709C53.7058 289.753 55.9319 288.008 58.2285 286.478C58.2769 286.446 58.3297 286.461 58.3463 286.513C58.3631 286.564 58.3374 286.632 58.2891 286.665C55.9476 288.23 53.6803 290.021 51.527 292.032C51.2199 293.69 50.9733 295.451 50.8147 297.299C50.8155 297.314 50.8142 297.329 50.8109 297.344C50.632 299.445 50.5675 301.656 50.6519 303.944C51.8399 302.179 53.1168 300.52 54.4659 298.972C54.5037 298.928 54.559 298.93 54.5898 298.976C54.6204 299.021 54.6147 299.093 54.577 299.136C53.1898 300.733 51.8798 302.449 50.6651 304.277C50.8173 307.842 51.336 311.589 52.3077 315.372C53.9442 312.479 55.8274 309.843 57.8906 307.488C57.9258 307.447 57.9811 307.451 58.0146 307.494C58.0482 307.537 58.0471 307.605 58.0125 307.645C55.9266 310.037 54.0268 312.717 52.383 315.662C52.8826 317.566 53.496 319.477 54.2285 321.376C54.2318 321.384 54.2352 321.391 54.2374 321.399C55.2273 323.963 56.4348 326.506 57.8619 328.982C58.0574 327.536 58.3213 326.126 58.6477 324.755C58.6605 324.7 58.7119 324.68 58.7619 324.709C58.8121 324.738 58.8424 324.806 58.8296 324.86C58.4928 326.29 58.2242 327.762 58.0305 329.272C58.7908 330.574 59.6246 331.851 60.5099 333.106Z" fill="#ADC8F7"/>
<path d="M13.8246 295.87C14.209 293.509 16.4746 293.658 17.9458 294.962C19.1931 296.067 20.2752 297.674 21.6184 298.552C22.9651 299.433 24.7351 299.262 25.1687 297.609C25.5076 296.339 24.9597 294.817 24.4767 293.47C22.3499 287.589 21.0346 281.259 20.7224 274.632C20.6599 273.316 20.6423 271.944 20.999 270.62C21.353 269.295 22.174 268.031 23.107 267.762C24.4887 267.371 25.3912 269.239 25.4067 271.088C25.4159 272.946 24.8233 274.818 24.4287 276.673C24.0727 278.33 23.8797 280.121 24.3333 281.657C24.7848 283.2 26.0475 284.312 27.1963 283.841C28.4108 283.343 29.0022 281.468 29.1113 279.804C29.2105 278.17 28.9939 276.489 29.4279 274.882C29.8596 273.266 31.3354 271.844 32.3869 272.545C33.2132 273.088 33.3287 274.504 33.3333 275.72C33.3433 281.305 27.9144 287.431 30.7372 292.798C32.604 296.071 36.0103 289.378 37.8502 286.979C38.7884 285.593 38.9367 290.323 38.4963 291.981C37.9856 293.643 37.0439 295.097 36.5352 296.8C35.9824 298.484 35.7396 302.373 37.3441 302.089C38.1608 301.937 38.4062 300.652 39.2599 300.74C40.1101 300.825 40.9391 301.514 41.2717 302.39C41.6581 303.412 41.3862 304.498 41.1349 305.505C40.5034 308.261 39.6099 308.463 40.178 312.278C40.3172 313.187 44.3894 307.618 45.4439 304.641C46.7634 300.952 49.0096 309.476 47.0402 317.335C46.7473 318.384 46.7452 319.569 46.9615 320.752C47.1729 321.934 47.8982 323.234 49.0708 323.875C50.6632 324.74 52.3195 324.131 53.9661 324.36C55.9663 324.639 57.8336 326.097 59.0733 327.726C60.261 329.332 59.7646 333.215 61.8345 332.975C62.1312 332.949 62.1634 333.002 62.0118 333.106H55.8013L46.208 330.147C46.2291 329.997 46.2298 329.835 46.1998 329.657C46.037 328.667 45.0329 327.675 44.0054 327.142C42.9768 326.612 41.9113 326.443 40.8753 326.265C38.127 325.793 35.3619 325.156 32.599 324.351C31.6068 324.062 30.5844 323.739 29.6277 323.045C28.6703 322.354 27.7913 321.191 27.6461 320.08C27.4497 318.565 28.6275 317.809 29.8562 317.867C31.088 317.925 32.414 318.534 33.6991 318.816C34.9858 319.104 36.3492 318.992 36.9191 317.985C37.6866 316.607 36.631 314.258 35.1912 312.912C33.7396 311.57 31.9938 310.955 30.3268 310.282C25.5259 308.342 20.8124 305.44 16.543 301.516C15.1046 300.212 13.4832 298.057 13.8246 295.87Z" fill="url(#paint3_linear_558_3159)"/>
<path d="M24.7258 302.689C27.481 304.297 30.2966 305.685 33.1408 306.856C30.487 301.849 28.8903 297.245 27.9379 293.841C27.2868 293.012 26.6532 292.16 26.0385 291.285C26.0038 291.236 26.0037 291.161 26.0378 291.118C26.0721 291.076 26.1277 291.081 26.1621 291.13C26.6961 291.892 27.2445 292.637 27.8063 293.364C26.8866 289.948 26.5695 287.864 26.5417 287.79C26.5301 287.726 26.5586 287.664 26.6053 287.651C26.652 287.638 26.6994 287.678 26.7111 287.741C26.7414 287.818 27.0796 290.075 28.0925 293.742C28.0952 293.749 28.0967 293.756 28.0985 293.764C28.7552 296.11 29.7128 299.024 31.1186 302.253C31.8694 299.683 32.7758 297.211 33.8196 294.85C33.8415 294.8 33.895 294.785 33.9385 294.816C33.9822 294.847 33.9997 294.912 33.9779 294.962C32.9154 297.374 31.9966 299.903 31.2411 302.532C31.8732 303.966 32.5928 305.459 33.4087 306.987C33.4172 306.999 33.4238 307.011 33.4287 307.025C34.3574 308.762 35.4109 310.544 36.5967 312.337C36.7772 310.356 37.0566 308.414 37.428 306.521C37.4385 306.468 37.4871 306.442 37.5372 306.463C37.587 306.485 37.6189 306.545 37.6086 306.598C37.2286 308.55 36.9464 310.553 36.7702 312.598C38.6309 315.385 40.8132 318.191 43.3125 320.894C43.5118 317.752 43.9679 314.708 44.6521 311.793C44.6639 311.743 44.7141 311.72 44.7643 311.74C44.8146 311.76 44.846 311.816 44.8345 311.865C44.1461 314.823 43.6928 317.912 43.5049 321.101C44.7694 322.457 46.1127 323.787 47.531 325.076C47.537 325.081 47.5429 325.085 47.548 325.091C49.463 326.83 51.5141 328.495 53.6838 330.055C53.3367 328.72 53.0465 327.389 52.8108 326.067C52.8013 326.015 52.8395 325.976 52.8957 325.98C52.9518 325.984 53.0049 326.03 53.0142 326.082C53.2622 327.459 53.5699 328.846 53.9393 330.238C55.3513 331.244 56.8203 332.197 58.3266 333.106H57.9853C57.4174 332.76 56.8517 332.411 56.2972 332.05C55.4616 332.208 54.617 332.348 53.7681 332.479L53.3186 332.341C54.2374 332.205 55.1515 332.059 56.055 331.892C52.9608 329.861 50.075 327.617 47.4461 325.231C44.0838 324.605 40.6995 323.713 37.3353 322.545C37.2783 322.525 37.232 322.463 37.2321 322.406C37.2321 322.349 37.2786 322.319 37.3353 322.339C40.6109 323.482 43.906 324.363 47.1815 324.99C41.0564 319.394 36.4188 313.015 33.2884 307.133C30.3802 305.952 27.5007 304.544 24.6835 302.907C24.6342 302.879 24.6038 302.806 24.6156 302.746C24.6272 302.686 24.6765 302.66 24.7258 302.689Z" fill="#ADC8F7"/>
<path d="M117.208 361.462C149.313 361.462 175.339 359.398 175.339 356.853C175.339 354.307 149.313 352.244 117.208 352.244C85.1025 352.244 59.0761 354.307 59.0761 356.853C59.0761 359.398 85.1025 361.462 117.208 361.462Z" fill="#F5F7FF"/>
<path d="M276.345 140.871C264.976 138.047 255.837 129.74 249.447 120.311C243.058 110.881 238.971 100.233 234.185 89.9711C226.067 72.565 215.6 55.812 200.811 43.0406C186.021 30.2693 166.473 21.7773 146.575 22.7231C126.676 23.669 106.939 35.2103 99.7322 52.9795C91.6023 73.0243 100.298 95.9528 113.387 113.431C126.476 130.91 143.813 145.249 156.243 163.162C168.673 181.075 175.642 204.908 165.323 224.009C156.936 239.537 139.472 248.137 123.478 256.585C107.484 265.034 90.6799 275.813 85.7944 292.655C79.3283 314.945 97.9145 338.206 120.508 346.451C143.101 354.696 168.243 351.862 192.226 348.911C231.052 344.133 269.879 339.355 308.705 334.576C325.178 332.549 341.973 330.434 356.957 323.58C371.942 316.727 385.081 304.205 387.904 288.547C390.697 273.052 383.454 255.773 391.504 242.064C398.452 230.232 414.154 226.096 428.321 225.387C442.488 224.679 457.237 226.181 470.398 221.114C495.97 211.268 505.439 178.999 496.989 153.897C488.538 128.795 467.026 109.874 444.958 94.0716C428.138 82.0274 409.048 70.6333 388.04 70.8918C370.039 71.1134 353.13 80.0992 340.199 92.0817C322.183 108.776 308.695 148.907 276.345 140.871Z" fill="#F5F7FF"/>
<path d="M229.228 222.637C228.96 222.637 228.741 222.432 228.737 222.175C228.733 221.916 228.949 221.702 229.22 221.698C230.663 221.677 232.137 221.633 233.602 221.569C235.085 221.503 236.566 221.411 238.007 221.297C238.244 221.275 238.514 221.467 238.536 221.726C238.559 221.984 238.357 222.211 238.087 222.233C236.636 222.348 235.142 222.44 233.648 222.506C232.173 222.572 230.688 222.616 229.235 222.637C229.233 222.637 229.231 222.637 229.228 222.637ZM220.398 222.498C220.391 222.498 220.382 222.498 220.374 222.497C217.407 222.358 214.435 222.123 211.541 221.798C211.272 221.767 211.08 221.534 211.111 221.277C211.143 221.019 211.374 220.834 211.656 220.865C214.528 221.188 217.477 221.421 220.422 221.559C220.693 221.572 220.901 221.793 220.888 222.051C220.875 222.303 220.659 222.498 220.398 222.498ZM246.811 221.207C246.575 221.207 246.368 221.043 246.328 220.814C246.284 220.558 246.465 220.316 246.733 220.274C249.698 219.807 252.589 219.218 255.324 218.524C255.588 218.459 255.853 218.608 255.923 218.858C255.993 219.109 255.837 219.365 255.575 219.432C252.809 220.133 249.888 220.728 246.892 221.201C246.865 221.204 246.838 221.207 246.811 221.207ZM202.871 220.518C202.841 220.518 202.809 220.515 202.778 220.509C199.854 219.974 196.947 219.332 194.139 218.6C193.879 218.532 193.725 218.274 193.796 218.023C193.867 217.774 194.136 217.626 194.398 217.694C197.181 218.42 200.063 219.057 202.962 219.587C203.229 219.636 203.403 219.882 203.352 220.136C203.307 220.361 203.101 220.518 202.871 220.518ZM263.844 216.832C263.648 216.832 263.463 216.719 263.386 216.534C263.288 216.292 263.412 216.02 263.664 215.925C266.456 214.876 269.119 213.67 271.579 212.343C271.814 212.217 272.114 212.294 272.248 212.521C272.381 212.747 272.298 213.033 272.061 213.161C269.562 214.509 266.857 215.733 264.023 216.799C263.964 216.821 263.903 216.832 263.844 216.832ZM185.854 216.064C185.799 216.064 185.742 216.055 185.687 216.036C182.887 215.061 180.13 213.969 177.491 212.788C177.245 212.679 177.139 212.399 177.254 212.165C177.369 211.929 177.662 211.83 177.906 211.938C180.519 213.107 183.25 214.188 186.022 215.153C186.277 215.242 186.408 215.511 186.315 215.755C186.243 215.946 186.055 216.064 185.854 216.064ZM169.885 208.902C169.799 208.902 169.714 208.882 169.637 208.838C169.186 208.585 168.74 208.329 168.294 208.069C166.228 206.861 164.185 205.547 162.22 204.164C162.003 204.01 161.956 203.716 162.117 203.508C162.278 203.298 162.585 203.255 162.803 203.408C164.744 204.775 166.764 206.074 168.806 207.267C169.246 207.525 169.688 207.778 170.133 208.028C170.367 208.159 170.445 208.447 170.308 208.67C170.216 208.819 170.052 208.902 169.885 208.902ZM279.132 208.501C278.989 208.501 278.846 208.441 278.75 208.326C278.58 208.124 278.613 207.829 278.824 207.666C280.801 206.144 282.646 204.482 284.306 202.725C284.488 202.532 284.798 202.518 284.998 202.691C285.2 202.865 285.215 203.162 285.034 203.354C283.339 205.148 281.457 206.844 279.439 208.398C279.348 208.467 279.24 208.501 279.132 208.501ZM155.684 198.902C155.566 198.902 155.447 198.861 155.353 198.779C153.163 196.872 151.062 194.84 149.109 192.74C148.93 192.546 148.947 192.25 149.151 192.078C149.352 191.905 149.661 191.922 149.843 192.116C151.772 194.191 153.849 196.2 156.015 198.085C156.215 198.26 156.229 198.557 156.047 198.748C155.95 198.85 155.817 198.902 155.684 198.902ZM143.973 186.294C143.82 186.294 143.669 186.226 143.573 186.097C141.846 183.775 140.254 181.356 138.842 178.905C138.711 178.678 138.797 178.393 139.035 178.268C139.27 178.143 139.571 178.224 139.701 178.452C141.095 180.871 142.667 183.26 144.372 185.553C144.53 185.764 144.478 186.057 144.257 186.208C144.171 186.266 144.072 186.294 143.973 186.294ZM135.484 171.523C135.29 171.523 135.106 171.412 135.029 171.229C133.915 168.578 132.979 165.861 132.246 163.153C132.179 162.902 132.337 162.646 132.599 162.581C132.864 162.516 133.129 162.668 133.197 162.918C133.919 165.587 134.841 168.265 135.94 170.878C136.041 171.119 135.919 171.392 135.667 171.489C135.607 171.512 135.546 171.523 135.484 171.523ZM131.097 155.207C130.851 155.207 130.639 155.031 130.61 154.792C130.351 152.638 130.22 150.428 130.22 148.225C130.22 147.579 130.231 146.934 130.253 146.288C130.262 146.03 130.455 145.827 130.76 145.835C131.03 145.843 131.243 146.06 131.234 146.319C131.212 146.954 131.201 147.589 131.201 148.225C131.201 150.393 131.33 152.566 131.585 154.684C131.616 154.942 131.422 155.175 131.154 155.205C131.135 155.207 131.116 155.207 131.097 155.207ZM131.661 138.376C131.632 138.376 131.603 138.374 131.575 138.369C131.308 138.324 131.13 138.081 131.177 137.825C131.691 135.037 132.416 132.26 133.332 129.571C133.416 129.326 133.69 129.189 133.951 129.27C134.209 129.351 134.349 129.616 134.266 129.862C133.364 132.509 132.649 135.244 132.143 137.989C132.101 138.216 131.894 138.376 131.661 138.376ZM137.124 122.367C137.051 122.367 136.977 122.351 136.907 122.319C136.664 122.204 136.564 121.923 136.684 121.69C138.005 119.129 139.526 116.663 141.204 114.361C141.361 114.147 141.667 114.096 141.888 114.244C142.11 114.393 142.165 114.685 142.009 114.898C140.358 117.161 138.862 119.586 137.564 122.105C137.479 122.271 137.304 122.367 137.124 122.367ZM147.215 108.586C147.091 108.586 146.968 108.542 146.873 108.453C146.678 108.272 146.674 107.975 146.863 107.789C148.951 105.732 151.215 103.855 153.591 102.21C153.81 102.058 154.117 102.105 154.276 102.315C154.435 102.525 154.386 102.819 154.166 102.971C151.836 104.584 149.615 106.425 147.566 108.443C147.471 108.538 147.342 108.586 147.215 108.586ZM161.454 98.7374C161.273 98.7374 161.098 98.6407 161.013 98.474C160.894 98.2412 160.995 97.96 161.238 97.8463C163.789 96.654 166.565 95.5895 169.49 94.6822C169.752 94.6027 170.025 94.7374 170.108 94.9838C170.191 95.2304 170.051 95.495 169.793 95.575C166.912 96.4688 164.179 97.5169 161.67 98.6896C161.599 98.7222 161.527 98.7374 161.454 98.7374ZM178.177 93.444C177.951 93.444 177.746 93.2925 177.698 93.0716C177.642 92.818 177.812 92.569 178.076 92.5154C180.763 91.9724 183.621 91.5024 186.814 91.0779C187.065 91.0431 187.329 91.2207 187.366 91.4783C187.404 91.7352 187.217 91.9722 186.948 92.0079C183.779 92.4291 180.943 92.8956 178.279 93.4339C178.245 93.4408 178.211 93.444 178.177 93.444ZM195.653 91.03C195.404 91.03 195.191 90.8495 195.166 90.6076C195.138 90.3497 195.334 90.1195 195.605 90.0935C197.781 89.8843 199.958 89.6925 202.129 89.5013L204.402 89.3003C204.659 89.2776 204.91 89.4655 204.936 89.7241C204.96 89.9822 204.762 90.2109 204.492 90.2349L202.219 90.4359C200.051 90.6271 197.876 90.8187 195.702 91.0277C195.686 91.0293 195.67 91.03 195.653 91.03ZM213.231 89.3567C212.988 89.3567 212.776 89.1827 212.746 88.9451C212.712 88.6877 212.903 88.4535 213.172 88.4216C216.327 88.0476 219.173 87.633 221.875 87.154C222.135 87.1068 222.397 87.275 222.446 87.5301C222.496 87.785 222.32 88.03 222.053 88.0772C219.332 88.5597 216.466 88.977 213.293 89.3531C213.273 89.3556 213.251 89.3567 213.231 89.3567ZM285.12 89.0725L284.576 89.0713C284.305 89.0702 284.086 88.8593 284.087 88.6001C284.088 88.3416 284.308 88.1326 284.578 88.1326C284.579 88.1326 284.579 88.1326 284.58 88.1326L285.12 88.1337C288.002 88.1335 290.776 88.0384 293.365 87.8514C293.655 87.8335 293.87 88.0254 293.892 88.2841C293.912 88.5426 293.71 88.7679 293.44 88.7874C290.826 88.9765 288.027 89.0722 285.12 89.0725ZM275.752 88.7871C275.742 88.7871 275.733 88.7869 275.723 88.7862C272.43 88.599 269.542 88.3462 266.894 88.0137C266.625 87.9798 266.437 87.7441 266.471 87.4871C266.506 87.2292 266.758 87.0507 267.022 87.0828C269.647 87.4126 272.512 87.6634 275.781 87.8495C276.052 87.8648 276.258 88.0872 276.242 88.3459C276.226 88.5948 276.01 88.7871 275.752 88.7871ZM302.157 87.7208C301.925 87.7208 301.719 87.5628 301.676 87.3369C301.626 87.082 301.803 86.8372 302.069 86.7898C305.045 86.262 307.899 85.5636 310.551 84.7143C310.808 84.6332 311.086 84.7645 311.173 85.0104C311.258 85.2561 311.12 85.5222 310.863 85.6044C308.167 86.4678 305.269 87.1772 302.247 87.713C302.218 87.7182 302.187 87.7208 302.157 87.7208ZM258.285 86.4595C258.245 86.4595 258.204 86.455 258.164 86.4451C255.859 85.8854 253.649 85.2106 251.594 84.4402C250.97 84.2061 250.35 83.9586 249.735 83.6977C249.488 83.5924 249.376 83.3151 249.486 83.0782C249.596 82.841 249.886 82.7349 250.133 82.8396C250.735 83.0951 251.342 83.3371 251.952 83.5661C253.969 84.3226 256.141 84.9852 258.405 85.5352C258.668 85.599 258.827 85.8545 258.76 86.1057C258.703 86.3182 258.504 86.4595 258.285 86.4595ZM230.57 86.203C230.356 86.203 230.158 86.0669 230.098 85.8593C230.025 85.6094 230.177 85.3507 230.439 85.2813C233.387 84.4968 236.177 83.5844 238.733 82.5698C238.98 82.4712 239.269 82.5836 239.374 82.8235C239.477 83.063 239.359 83.3376 239.108 83.437C236.516 84.4661 233.688 85.3911 230.701 86.1857C230.658 86.1973 230.613 86.203 230.57 86.203ZM318.809 82.2958C318.635 82.2958 318.465 82.2062 318.377 82.0483C318.249 81.8198 318.339 81.5352 318.577 81.4128L319.147 81.1151C321.468 79.8813 323.692 78.3942 325.755 76.6945C325.961 76.5261 326.27 76.5467 326.447 76.744C326.623 76.9405 326.6 77.2368 326.395 77.4059C324.281 79.147 322.003 80.6712 319.624 81.9358L319.041 82.2402C318.967 82.278 318.888 82.2958 318.809 82.2958ZM246.78 79.647C246.617 79.647 246.457 79.5681 246.364 79.4247C246.221 79.2042 246.292 78.915 246.523 78.7786C249.053 77.2795 251.388 75.5812 253.462 73.7305C253.659 73.5539 253.972 73.5643 254.155 73.7537C254.34 73.9432 254.33 74.2402 254.131 74.4172C252.011 76.3096 249.624 78.0454 247.038 79.5767C246.959 79.6243 246.869 79.647 246.78 79.647ZM242.287 79.5417C242.187 79.5417 242.086 79.5126 241.999 79.4518C239.498 77.7098 237.305 75.7427 235.483 73.6051C235.312 73.404 235.343 73.1084 235.553 72.9445C235.761 72.7813 236.072 72.8102 236.243 73.0115C238.012 75.0868 240.144 76.9984 242.576 78.6928C242.795 78.8455 242.843 79.139 242.684 79.3488C242.588 79.4748 242.439 79.5417 242.287 79.5417ZM332.101 71.3637C331.999 71.3637 331.895 71.3332 331.807 71.2697C331.591 71.114 331.547 70.82 331.709 70.6126C333.496 68.3347 334.968 65.9166 336.083 63.4257C336.19 63.1864 336.479 63.0775 336.728 63.1793C336.977 63.2813 337.092 63.5572 336.986 63.7956C335.839 66.3551 334.328 68.8382 332.494 71.1758C332.398 71.2988 332.25 71.3637 332.101 71.3637ZM259.5 68.1199C259.408 68.1199 259.315 68.0954 259.232 68.044C259.005 67.9026 258.941 67.612 259.089 67.3945C260.752 64.9468 261.942 62.4122 262.626 59.8609C262.693 59.6099 262.956 59.4575 263.223 59.5226C263.485 59.587 263.643 59.8427 263.576 60.0937C262.866 62.7442 261.634 65.3728 259.911 67.9062C259.817 68.0448 259.66 68.1199 259.5 68.1199ZM231.42 66.5199C231.222 66.5199 231.036 66.4045 230.961 66.2167C229.902 63.5448 229.321 60.6347 229.277 57.8007C229.273 57.5415 229.489 57.3284 229.76 57.3245C229.763 57.3245 229.765 57.3245 229.767 57.3245C230.035 57.3245 230.254 57.53 230.258 57.787C230.3 60.5132 230.861 63.313 231.879 65.884C231.975 66.1265 231.848 66.3973 231.594 66.4892C231.537 66.5101 231.478 66.5199 231.42 66.5199ZM338.859 55.9609C338.839 55.9609 338.819 55.9598 338.799 55.9574C338.53 55.9263 338.339 55.6925 338.371 55.4352C338.503 54.3937 338.57 53.3447 338.57 52.3171C338.57 50.584 338.381 48.8582 338.008 47.1879C337.952 46.9344 338.121 46.6851 338.386 46.6311C338.646 46.5774 338.911 46.7381 338.968 46.9922C339.355 48.7267 339.551 50.5183 339.551 52.3172C339.551 53.3824 339.482 54.4693 339.345 55.5481C339.315 55.786 339.104 55.9609 338.859 55.9609ZM263.48 52.072C263.248 52.072 263.04 51.9123 262.998 51.6849C262.477 48.882 261.306 46.2992 259.612 44.2155C259.445 44.011 259.483 43.716 259.698 43.5568C259.91 43.3984 260.219 43.4338 260.386 43.6394C262.178 45.8428 263.415 48.5681 263.964 51.5204C264.012 51.7757 263.834 52.0193 263.568 52.0647C263.538 52.0697 263.509 52.072 263.48 52.072ZM231.297 49.9976C231.236 49.9976 231.175 49.9868 231.116 49.9641C230.864 49.8684 230.741 49.5952 230.841 49.3546C231.498 47.7745 232.357 46.3038 233.395 44.9835C234.147 44.0259 235.029 43.1344 236.015 42.3334C236.221 42.1659 236.532 42.1897 236.706 42.3872C236.881 42.5848 236.856 42.8811 236.65 43.0489C235.719 43.805 234.888 44.6456 234.179 45.5477C233.194 46.8014 232.378 48.1989 231.753 49.7015C231.676 49.8855 231.491 49.9976 231.297 49.9976ZM252.884 39.6219C252.836 39.6219 252.787 39.615 252.738 39.6005C250.127 38.8245 247.165 38.756 244.268 39.4021C244.002 39.4608 243.74 39.3035 243.678 39.0515C243.617 38.7992 243.781 38.5465 244.045 38.4877C247.107 37.804 250.249 37.8778 253.029 38.7041C253.288 38.781 253.433 39.0439 253.352 39.2917C253.287 39.4926 253.093 39.6219 252.884 39.6219Z" fill="#DBE5FF"/>
<path d="M351.858 37.3387C351.92 37.4716 351.875 37.6243 351.749 37.7042L338.482 46.07C338.463 46.0879 338.434 46.0965 338.405 46.1051C338.307 46.1342 338.198 46.1121 338.119 46.0446C338.016 45.9602 337.989 45.8171 338.047 45.7029L347.002 28.3602C347.057 28.2589 347.164 28.1971 347.279 28.1993C347.393 28.2016 347.503 28.2659 347.548 28.3674L351.858 37.3387Z" fill="url(#paint4_linear_558_3159)"/>
<path d="M398.509 0.330574C398.574 0.43247 398.565 0.562065 398.488 0.657621L357.832 50.1508C357.791 50.1994 357.739 50.2331 357.681 50.2502C357.646 50.2606 357.604 50.267 357.558 50.2623C357.453 50.2511 357.363 50.1871 357.321 50.0967L343.92 22.1973L329.927 14.3214C329.82 14.2625 329.763 14.1461 329.781 14.0258C329.806 13.9093 329.89 13.8177 330.021 13.791L398.187 0.196086C398.312 0.171168 398.442 0.223227 398.509 0.330574Z" fill="url(#paint5_linear_558_3159)"/>
<path d="M382.547 7.25655C382.623 7.39159 382.574 7.55155 382.442 7.63309L347.507 28.6885L338.592 45.9587C338.552 46.0311 338.486 46.081 338.405 46.1049C338.348 46.122 338.279 46.1245 338.214 46.1012C338.072 46.0526 337.987 45.9083 338.023 45.7645L343.865 21.929C343.886 21.838 343.956 21.7626 344.045 21.7241L382.168 7.12106C382.32 7.06377 382.48 7.1254 382.547 7.25655Z" fill="#C2D5FF"/>
<path d="M81.7551 350.589C81.7242 350.776 81.559 350.915 81.3733 350.915H81.3217C80.3308 350.796 79.5051 350.214 79.0613 349.424C79.2575 349.197 79.4329 348.96 79.5877 348.733C79.8561 349.493 80.5476 350.066 81.4249 350.174C81.6312 350.204 81.7861 350.391 81.7551 350.589Z" fill="white"/>
<path d="M79.8767 351.635C79.856 351.813 79.6909 351.951 79.4948 351.951H79.4432C78.5968 351.843 77.8744 351.398 77.3995 350.776C77.513 350.717 77.6266 350.658 77.7298 350.589C77.8433 350.52 77.9466 350.441 78.0498 350.362C78.3904 350.816 78.9168 351.132 79.5465 351.211C79.7632 351.241 79.9076 351.428 79.8767 351.635Z" fill="white"/>
<path d="M78.0084 352.672C77.9774 352.86 77.8122 352.998 77.6265 352.998C77.6058 352.998 77.5851 352.988 77.5749 352.988C76.6047 352.87 75.7996 352.317 75.3455 351.556C75.6242 351.487 75.8822 351.408 76.1196 351.329C76.4601 351.823 77.0072 352.169 77.6678 352.257C77.8846 352.277 78.029 352.465 78.0084 352.672Z" fill="white"/>
<path d="M104.978 350.5C104.947 350.687 104.782 350.826 104.596 350.826H104.544C103.615 350.717 102.831 350.194 102.377 349.473C102.563 349.256 102.738 349.029 102.882 348.812C103.182 349.493 103.832 349.986 104.647 350.085C104.854 350.115 105.009 350.302 104.978 350.5Z" fill="white"/>
<path d="M103.099 351.547C103.078 351.724 102.913 351.863 102.717 351.863H102.666C101.871 351.764 101.19 351.369 100.715 350.806C100.839 350.737 100.962 350.658 101.076 350.589C101.179 350.53 101.272 350.461 101.365 350.391C101.706 350.776 102.191 351.053 102.769 351.122C102.986 351.152 103.13 351.339 103.099 351.547Z" fill="white"/>
<path d="M101.231 352.583C101.2 352.771 101.035 352.909 100.849 352.909C100.828 352.909 100.808 352.899 100.797 352.899C99.8685 352.79 99.0944 352.277 98.6403 351.566C98.919 351.497 99.177 351.428 99.4247 351.349C99.7653 351.783 100.281 352.089 100.89 352.168C101.107 352.188 101.252 352.376 101.231 352.583Z" fill="white"/>
<path d="M422.722 199.365V326.638C422.722 327.567 422.641 328.573 422.398 329.425C421.023 335.85 415.115 340.651 408.075 340.651H165.628C158.587 340.651 152.68 335.85 151.304 329.425C151.061 328.573 150.981 327.567 150.981 326.638V199.365C150.981 194.951 153.166 190.771 156.969 188.139L278.192 102.671C283.29 99.0318 290.412 99.0318 295.51 102.671L416.733 188.139C420.537 190.771 422.722 194.951 422.722 199.365Z" fill="url(#paint6_linear_558_3159)"/>
<path d="M393.195 124.599V282.278H180.508V124.599C180.508 120.099 184.321 116.451 189.025 116.451H384.677C389.381 116.451 393.195 120.099 393.195 124.599Z" fill="url(#paint7_linear_558_3159)"/>
<path d="M417.269 188.612L286.851 259.188L156.433 188.612C152.994 191.256 150.98 195.184 150.98 199.365V326.638C150.98 327.567 151.061 328.573 151.304 329.425C152.68 335.85 158.587 340.651 165.628 340.651H408.075C415.115 340.651 421.022 335.85 422.398 329.425C422.641 328.573 422.722 327.567 422.722 326.638V199.365C422.722 195.184 420.709 191.256 417.269 188.612Z" fill="url(#paint8_linear_558_3159)"/>
<path d="M422.398 329.425C421.023 335.85 415.115 340.651 408.075 340.651H165.628C158.587 340.651 152.68 335.85 151.304 329.425L282.179 251.836C285.041 250.139 288.661 250.139 291.524 251.836L422.398 329.425Z" fill="url(#paint9_linear_558_3159)"/>
<path d="M348.745 138.835V165.356C348.745 167.712 346.749 169.621 344.287 169.621H229.416C226.954 169.621 224.957 167.712 224.957 165.356V138.835C224.957 136.479 226.954 134.57 229.416 134.57H344.287C346.749 134.57 348.745 136.479 348.745 138.835Z" fill="white"/>
<path d="M264.631 186.865C264.631 188.701 266.188 190.19 268.108 190.19H370.004C371.924 190.19 373.481 188.701 373.481 186.865C373.481 185.028 371.924 183.539 370.004 183.539H268.108C266.188 183.539 264.631 185.028 264.631 186.865Z" fill="white"/>
<path d="M229.838 183.539H208.58C206.66 183.539 205.104 185.028 205.104 186.865C205.104 188.701 206.66 190.19 208.58 190.19H229.838C231.758 190.19 233.315 188.701 233.315 186.865C233.315 185.028 231.758 183.539 229.838 183.539Z" fill="white"/>
<path d="M312.102 198.352H208.58C206.66 198.352 205.104 199.841 205.104 201.678C205.104 203.515 206.66 205.004 208.58 205.004H312.102C314.022 205.004 315.578 203.515 315.578 201.678C315.578 199.841 314.022 198.352 312.102 198.352Z" fill="white"/>
<path d="M234.083 216.491C234.083 218.328 235.64 219.817 237.56 219.817H309.879C311.799 219.817 313.356 218.328 313.356 216.491C313.356 214.655 311.799 213.166 309.879 213.166H237.56C235.64 213.166 234.083 214.655 234.083 216.491Z" fill="white"/>
<path d="M314.096 231.305C314.096 233.141 312.54 234.631 310.62 234.631H267.964C266.044 234.631 264.488 233.142 264.488 231.305C264.488 229.468 266.044 227.979 267.964 227.979H310.62C312.54 227.979 314.096 229.468 314.096 231.305Z" fill="white"/>
<path d="M106.085 342.687L106.287 353.287L94.6229 352.275L96.9736 340.651L106.085 342.687Z" fill="#FDCCC5"/>
<path d="M109.343 355.22C109.127 355.891 108.858 356.415 108.528 356.74C104.812 360.364 99.0633 358.488 87.462 359.16C80.3402 359.564 78.2862 357.007 78.3379 354.825C78.3791 353.442 79.2461 352.198 80.2163 351.932C81.4446 351.586 81.5891 352.317 84.2726 351.991C84.8713 351.912 85.5938 351.793 86.4815 351.596C86.5434 351.586 86.6053 351.566 86.6569 351.556C86.9357 351.487 87.1937 351.408 87.431 351.329C87.9263 351.171 88.3496 350.984 88.7109 350.776C88.8244 350.717 88.938 350.658 89.0411 350.589C89.1546 350.52 89.2579 350.441 89.3611 350.361C89.774 350.075 90.0939 349.749 90.3726 349.423C90.5688 349.196 90.7442 348.959 90.899 348.732C91.5699 347.784 92.0447 346.866 93.1904 346.402C93.9026 346.116 94.5322 346.145 95.0793 346.382C96.4417 346.915 97.3396 348.604 98.0415 349.325C98.9601 350.253 100.9 351.132 103.212 350.766C105.524 350.411 104.668 346.886 107.589 346.353C107.64 346.343 107.682 346.333 107.723 346.333C110.014 346.145 110.355 352.099 109.343 355.22Z" fill="url(#paint10_linear_558_3159)"/>
<path d="M96.8379 352.72C96.6787 352.568 96.5153 352.413 96.312 352.32C96.1088 352.227 95.8545 352.208 95.6659 352.326C95.4245 352.476 95.3669 352.806 95.4567 353.068C95.5465 353.33 95.7493 353.54 95.9463 353.742C96.4453 354.251 96.9442 354.76 97.4432 355.27C97.5813 355.411 97.7302 355.585 97.6899 355.774C97.6448 355.987 97.3888 356.088 97.1641 356.116C96.4535 356.204 95.7423 355.913 95.168 355.503C94.5935 355.093 94.1233 354.567 93.6063 354.093C93.4288 353.93 93.2405 353.77 93.0127 353.681C92.7849 353.592 92.5082 353.585 92.3061 353.719C91.946 353.958 92.0052 354.518 92.2959 354.832C92.5866 355.146 93.0222 355.288 93.4223 355.46C93.7062 355.581 94.0249 355.8 93.9802 356.094C93.9397 356.361 93.6245 356.495 93.3487 356.549C92.1588 356.78 90.8545 356.357 90.0556 355.483C89.8454 355.253 89.6623 354.989 89.3909 354.828C89.1195 354.667 88.7176 354.647 88.5164 354.885C88.3849 355.04 88.3749 355.265 88.4384 355.455C88.5019 355.645 88.6285 355.81 88.753 355.97C89.274 356.641 89.8253 357.337 90.6104 357.703C91.253 358.003 91.9882 358.052 92.7025 358.08C94.8208 358.166 96.9445 358.124 99.0573 357.955C99.5967 357.912 100.135 357.861 100.673 357.801C100.93 357.772 101.19 357.749 101.445 357.71C101.76 357.662 101.885 357.647 101.705 357.383C101.428 356.976 100.907 356.618 100.549 356.274C100.18 355.92 99.8102 355.566 99.4406 355.212C98.5734 354.382 97.7058 353.551 96.8379 352.72Z" fill="#F9C55F"/>
<path d="M106.704 350.133C106.735 352.54 107.841 354.566 109.34 355.228C110.35 352.107 110.012 346.151 107.721 346.34C107.077 347.315 106.685 348.649 106.704 350.133Z" fill="#070159"/>
<path d="M108.964 356.127C108.83 356.374 108.684 356.585 108.524 356.741C104.811 360.363 99.068 358.488 87.4624 359.155C82.1217 359.461 79.6345 358.103 78.7457 356.479C88.4835 357.828 98.5648 357.673 108.964 356.127Z" fill="#070159"/>
<path d="M78.3382 354.825C78.8736 355.04 79.4618 355.151 80.0793 355.144C82.1094 355.121 83.8063 353.786 84.2775 351.986C81.5874 352.313 81.4469 351.591 80.216 351.93C79.2467 352.2 78.3747 353.443 78.3382 354.825Z" fill="#070159"/>
<path d="M107.691 343.66L112.497 191.82L79.1117 193.378L95.1927 343.66C95.1927 345.48 107.691 345.48 107.691 343.66Z" fill="url(#paint11_linear_558_3159)"/>
<path d="M129.438 342.687L129.64 353.287L117.976 352.275L120.326 340.651L129.438 342.687Z" fill="#FDCCC5"/>
<path d="M132.688 355.22C132.472 355.891 132.203 356.415 131.873 356.74C128.168 360.364 122.419 358.488 110.817 359.16C103.696 359.565 101.642 357.007 101.693 354.825C101.724 353.443 102.601 352.198 103.572 351.932C104.8 351.586 104.944 352.317 107.628 351.991C108.227 351.912 108.949 351.793 109.837 351.596C109.878 351.586 109.909 351.576 109.95 351.566C110.229 351.497 110.487 351.428 110.735 351.349C111.23 351.181 111.653 351.003 112.025 350.806C112.149 350.737 112.273 350.658 112.386 350.589C112.489 350.529 112.582 350.46 112.675 350.391C113.078 350.105 113.408 349.789 113.687 349.473C113.873 349.256 114.048 349.028 114.192 348.811C114.894 347.834 115.369 346.886 116.546 346.402C117.258 346.116 117.888 346.145 118.435 346.382C119.797 346.915 120.695 348.604 121.397 349.325C122.316 350.253 124.256 351.132 126.568 350.766C128.88 350.411 128.023 346.886 130.944 346.353C130.986 346.343 131.037 346.333 131.078 346.333C133.359 346.145 133.7 352.1 132.688 355.22Z" fill="url(#paint12_linear_558_3159)"/>
<path d="M121.035 352.72C120.875 352.568 120.712 352.413 120.509 352.32C120.306 352.227 120.051 352.208 119.863 352.326C119.621 352.476 119.564 352.806 119.653 353.068C119.743 353.33 119.946 353.54 120.143 353.742C120.642 354.251 121.141 354.76 121.64 355.27C121.778 355.411 121.927 355.585 121.887 355.774C121.842 355.987 121.586 356.088 121.361 356.116C120.65 356.204 119.939 355.913 119.365 355.503C118.79 355.093 118.32 354.567 117.803 354.093C117.626 353.93 117.437 353.77 117.209 353.681C116.982 353.592 116.705 353.585 116.503 353.719C116.143 353.958 116.202 354.518 116.493 354.832C116.783 355.146 117.219 355.288 117.619 355.46C117.903 355.581 118.222 355.8 118.177 356.094C118.136 356.361 117.821 356.495 117.545 356.549C116.356 356.78 115.051 356.357 114.252 355.483C114.042 355.253 113.859 354.989 113.588 354.828C113.316 354.667 112.914 354.647 112.713 354.885C112.582 355.04 112.572 355.265 112.635 355.455C112.699 355.645 112.825 355.81 112.95 355.97C113.471 356.641 114.022 357.337 114.807 357.703C115.45 358.003 116.185 358.052 116.899 358.08C119.018 358.166 121.141 358.124 123.254 357.955C123.794 357.912 124.332 357.861 124.87 357.801C125.127 357.772 125.387 357.749 125.642 357.71C125.957 357.662 126.082 357.647 125.902 357.383C125.625 356.976 125.104 356.618 124.746 356.274C124.376 355.92 124.007 355.566 123.637 355.212C122.77 354.382 121.902 353.551 121.035 352.72Z" fill="#F9C55F"/>
<path d="M130.056 350.133C130.087 352.54 131.194 354.566 132.692 355.228C133.702 352.107 133.364 346.151 131.073 346.34C130.43 347.315 130.038 348.649 130.056 350.133Z" fill="#070159"/>
<path d="M132.316 356.127C132.183 356.374 132.037 356.585 131.876 356.741C128.163 360.363 122.42 358.488 110.815 359.155C105.474 359.462 102.987 358.103 102.098 356.479C111.836 357.828 121.917 357.673 132.316 356.127Z" fill="#070159"/>
<path d="M101.691 354.825C102.226 355.04 102.814 355.152 103.432 355.144C105.462 355.121 107.159 353.786 107.63 351.986C104.94 352.313 104.799 351.591 103.568 351.93C102.599 352.2 101.727 353.443 101.691 354.825Z" fill="#070159"/>
<path d="M131.045 343.66L135.851 191.82L102.465 193.378L118.547 343.66C118.547 345.48 131.045 345.48 131.045 343.66Z" fill="url(#paint13_linear_558_3159)"/>
<path d="M101.185 130.402C102.636 134.757 94.7249 142.422 88.9069 144.732C76.4461 149.68 60.3856 157.465 50.1957 154.207C36.1214 149.707 46.6831 111.187 46.6831 111.187L57.7875 112.45C57.7875 112.45 52.2493 135.244 57.7367 137.63C64.9861 140.783 77.2767 123.869 84.9284 121.759C89.3959 120.527 99.2527 124.604 101.185 130.402Z" fill="url(#paint14_linear_558_3159)"/>
<path d="M128.604 123.698C119.086 120.524 93.2839 116.817 84.6041 122.062C78.9364 125.487 77.6107 169.065 78.0227 194.759C78.0424 195.989 78.9542 197.024 80.211 197.282C94.9794 200.304 114.1 199.152 134.575 196.701C136.055 196.524 137.111 195.235 136.942 193.817L128.604 123.698Z" fill="url(#paint15_linear_558_3159)"/>
<path d="M117.655 107.312C117.655 107.312 117.377 116.829 116.684 124.035C116.409 126.891 104.876 126.898 104.693 124.035C104.455 120.298 104.693 112.015 104.693 112.015L117.655 107.312Z" fill="#FDCCC5"/>
<path d="M124.019 103.803C124.019 103.803 115.989 115.336 105.461 115.879C99.0207 116.215 97.4518 112.038 97.2042 108.731C97.1731 108.365 97.1629 108.02 97.1629 107.684C97.1629 106.084 97.4209 104.889 97.4209 104.889C90.4334 102.589 98.4118 98.57 98.4118 98.57L102.602 85.9607L115.69 87.2641C123.338 90.5915 127.188 95.6275 124.019 103.803Z" fill="#FDCCC5"/>
<path d="M120.176 98.0886C120.176 98.0886 119.054 89.771 114.757 90.3754C110.461 90.9798 101.981 96.0075 95.0449 90.3325C83.2843 80.7106 88.2221 68.6244 94.0972 68.0719C101.64 67.3625 105.533 76.2922 105.533 76.2922C105.533 76.2922 104.709 68.5561 108.634 68.5639C112.149 68.5708 113.873 77.622 113.873 77.622C113.873 77.622 123.09 70.6396 122.674 80.7614C122.674 80.7614 129.47 77.5038 131.324 80.04C133.568 83.1098 128.016 87.5645 128.016 87.5645C128.016 87.5645 132.387 87.7968 128.224 93.1065C135.849 94.6776 130.023 99.2186 124.023 103.799C125.428 98.8835 126.159 94.7236 120.176 98.0886Z" fill="url(#paint16_linear_558_3159)"/>
<path d="M128.604 123.698C128.604 123.698 126.405 140.976 127.491 146.335C129.817 157.813 137.855 178.817 148.565 184.447C158.038 189.427 193.031 186.293 193.031 186.293C194.794 186.122 193.547 174.398 191.783 174.57C191.783 174.57 165.571 175.054 158.873 169.847C152.702 165.05 147.68 149.798 145.528 142.475C141.78 129.721 128.604 123.698 128.604 123.698Z" fill="url(#paint17_linear_558_3159)"/>
<path d="M192.849 175.946C192.849 175.946 199.944 170.158 201.788 172.158C202.993 173.464 198.464 176.598 198.464 176.598C198.464 176.598 205.431 176.243 208.67 176.486C214.607 176.931 212.708 190.98 193.513 184.622L192.849 175.946Z" fill="#FDCCC5"/>
<path d="M54.7491 99.6973C54.5846 99.9369 54.3256 100.064 53.9354 100.034C53.9354 100.034 47.2183 99.0917 46.0584 100.818C43.2039 105.066 47.5826 107.802 46.6978 111.163L57.3103 112.493C57.3103 112.493 58.3719 107.098 58.634 101.493L54.7491 99.6973Z" fill="#FDCCC5"/>
<path d="M32.6164 69.5428C27.2347 77.6911 25.4934 85.5091 28.7175 86.9997C31.9515 88.4949 38.9364 83.1013 44.3182 74.953C49.7001 66.8046 51.4413 58.9867 48.2072 57.4915C44.9832 56.0008 37.9984 61.3944 32.6164 69.5428Z" fill="url(#paint18_linear_558_3159)"/>
<path d="M30.7787 83.8748C32.7377 84.7805 36.4554 82.478 39.9817 78.4378C41.044 77.2313 42.0992 75.865 43.0767 74.3785C43.7715 73.3272 44.3852 72.2865 44.9183 71.2809C47.6729 66.0773 48.2739 61.5992 46.1414 60.6134C43.6013 59.439 38.0963 63.6843 33.854 70.1145C29.6114 76.5447 28.2384 82.7003 30.7787 83.8748Z" fill="url(#paint19_linear_558_3159)"/>
<path d="M28.7196 87.0042C28.9648 87.1207 29.2293 87.1968 29.5034 87.2281L28.7196 87.0042Z" fill="#E7ECFF"/>
<path d="M29.5034 87.222L55.37 94.4132L65.5589 79.4511L49.6149 59.269C50.5301 62.365 48.5342 68.5578 44.3215 74.9537C39.3446 82.4891 32.9863 87.6764 29.5034 87.222Z" fill="url(#paint20_linear_558_3159)"/>
<path d="M65.5628 79.4534L73.3355 84.0104C75.7316 85.4153 76.4083 88.4543 74.8184 90.6713L70.1337 97.204C68.7206 99.1746 65.9861 99.8158 63.7806 98.6936L55.3708 94.4146L65.5628 79.4534Z" fill="url(#paint21_linear_558_3159)"/>
<path d="M70.0607 97.3265C71.9798 98.5787 74.5935 98.106 75.9088 96.2612C77.2178 94.4254 76.724 91.9248 74.8049 90.6726L70.0607 97.3265Z" fill="url(#paint22_linear_558_3159)"/>
<path d="M35.4374 71.34C34.2096 73.7704 35.269 76.6801 37.8096 77.8547C38.442 78.147 39.1846 78.346 39.9817 78.4377C41.044 77.2312 42.0992 75.8649 43.0767 74.3784C43.7716 73.3271 44.3852 72.2864 44.9183 71.2808C44.1749 70.311 43.216 69.5184 42.247 69.0705C39.7066 67.8959 36.6651 68.9097 35.4374 71.34Z" fill="url(#paint23_linear_558_3159)"/>
<path d="M63.642 98.623L61.837 100.234C61.6403 100.41 61.3488 100.447 61.1111 100.326L54.7139 97.073C54.3461 96.886 54.2656 96.4153 54.5519 96.1259L55.9525 94.7104L63.642 98.623Z" fill="url(#paint24_linear_558_3159)"/>
<path d="M55.2014 97.321L48.5517 104.092C47.267 105.4 47.4054 107.475 48.8538 108.616C50.1995 109.676 52.1802 109.531 53.3407 108.286L60.8572 100.224L55.2014 97.321Z" fill="url(#paint25_linear_558_3159)"/>
<path d="M57.4988 112.516C57.4988 112.516 60.9347 106.199 59.8054 104.084C59.0234 102.62 52.7313 101.118 52.1502 102.822C51.4542 104.861 55.9193 106.161 55.9193 106.161L53.5945 112.027L57.4988 112.516Z" fill="#FDCCC5"/>
<path d="M14.7052 52.7557L26.5204 66.7672C26.6752 66.9507 26.9489 66.9943 27.1574 66.8686L29.2135 65.629C29.3875 65.5241 29.4737 65.3259 29.4285 65.1339L24.3598 43.5643C24.2748 43.2025 23.803 43.0771 23.5351 43.3449L14.7324 52.1426C14.5634 52.3114 14.5518 52.5739 14.7052 52.7557Z" fill="url(#paint26_linear_558_3159)"/>
<path d="M11.66 72.596L24.2075 71.8903C24.4534 71.8765 24.6497 71.6887 24.6639 71.4533L24.7455 70.1044C24.7573 69.908 24.6387 69.7257 24.4492 69.6493L10.2825 63.9358C9.92537 63.7917 9.54443 64.0862 9.61653 64.4505L11.1542 72.2186C11.1997 72.4482 11.4162 72.6098 11.66 72.596Z" fill="url(#paint27_linear_558_3159)"/>
<path d="M31.2391 48.1111L33.0579 60.009C33.0936 60.2423 33.3061 60.4131 33.5524 60.4063L34.9643 60.3676C35.1698 60.3619 35.3494 60.2331 35.4125 60.046L40.1388 46.0503C40.258 45.6974 39.9185 45.3598 39.5453 45.46L31.5884 47.5966C31.3534 47.6596 31.2038 47.8799 31.2391 48.1111Z" fill="url(#paint28_linear_558_3159)"/>
<path d="M124.527 102.505C122.992 104.363 120.585 104.994 119.158 103.915C117.726 102.833 117.817 100.45 119.352 98.5924C120.892 96.7282 123.294 96.0933 124.725 97.176C126.152 98.2548 126.067 100.641 124.527 102.505Z" fill="#FDCCC5"/>
<path d="M101.115 107.486C100.465 108.247 99.5466 108.72 98.5248 108.819C98.4009 108.829 98.2667 108.839 98.1326 108.839C97.8126 108.839 97.5029 108.8 97.2036 108.73C97.1726 108.365 97.1623 108.019 97.1623 107.684C97.5545 107.822 97.988 107.881 98.4216 107.832C99.1751 107.763 99.846 107.417 100.321 106.864C100.496 106.647 100.826 106.617 101.043 106.795C101.27 106.963 101.301 107.279 101.115 107.486Z" fill="#EC8B73"/>
<path d="M102.648 97.6159C102.648 98.028 102.295 98.3652 101.865 98.3652C101.428 98.3652 101.076 98.028 101.076 97.6159C101.076 97.1983 101.428 96.8611 101.865 96.8611C102.295 96.8611 102.648 97.1983 102.648 97.6159Z" fill="url(#paint29_linear_558_3159)"/>
<path d="M105.28 95.5701C105.391 95.6444 105.502 95.7242 105.575 95.8329C105.648 95.9416 105.678 96.0859 105.617 96.2015C105.515 96.3975 105.233 96.4133 105.004 96.3946C103.648 96.2831 102.316 95.9081 101.113 95.2991C100.978 95.2308 100.841 95.1575 100.741 95.0477C100.075 94.3222 101.559 94.3311 101.939 94.3725C102.678 94.4533 103.421 94.6455 104.101 94.9333C104.515 95.1083 104.91 95.3214 105.28 95.5701Z" fill="url(#paint30_linear_558_3159)"/>
<path d="M452.635 220.929C452.364 220.929 452.144 220.719 452.144 220.459V214.833C452.144 209.926 447.971 205.934 442.841 205.934H436.657C436.385 205.934 436.166 205.724 436.166 205.465C436.166 205.206 436.385 204.996 436.657 204.996H442.841C448.512 204.996 453.125 209.409 453.125 214.833V220.459C453.125 220.718 452.906 220.929 452.635 220.929Z" fill="#ADC8F7"/>
<path d="M442.841 265.662H436.657C436.385 265.662 436.166 265.452 436.166 265.193C436.166 264.934 436.385 264.724 436.657 264.724H442.841C447.971 264.724 452.144 260.732 452.144 255.825V250.199C452.144 249.939 452.364 249.729 452.635 249.729C452.906 249.729 453.125 249.939 453.125 250.199V255.825C453.125 261.249 448.512 265.662 442.841 265.662Z" fill="#ADC8F7"/>
<path d="M336.68 265.662H330.495C324.825 265.662 320.212 261.249 320.212 255.825V250.198C320.212 249.939 320.431 249.729 320.702 249.729C320.973 249.729 321.193 249.939 321.193 250.198V255.825C321.193 260.732 325.366 264.724 330.495 264.724H336.679C336.951 264.724 337.17 264.934 337.17 265.193C337.17 265.452 336.951 265.662 336.68 265.662Z" fill="#ADC8F7"/>
<path d="M320.702 220.929C320.431 220.929 320.212 220.718 320.212 220.459V214.833C320.212 209.408 324.825 204.995 330.495 204.995H336.68C336.951 204.995 337.171 205.205 337.171 205.465C337.171 205.724 336.951 205.934 336.68 205.934H330.495C325.366 205.934 321.193 209.926 321.193 214.833V220.459C321.193 220.718 320.974 220.929 320.702 220.929Z" fill="#ADC8F7"/>
<path d="M447.748 214.833V255.824C447.748 258.417 445.551 260.518 442.842 260.518H330.495C327.786 260.518 325.589 258.416 325.589 255.824V214.833C325.589 212.241 327.786 210.14 330.495 210.14H442.842C445.551 210.14 447.748 212.241 447.748 214.833Z" fill="url(#paint31_linear_558_3159)"/>
<path d="M371.731 235.329C371.731 245.201 363.347 253.205 353.028 253.205C342.708 253.205 334.342 245.201 334.342 235.329C334.342 225.456 342.708 217.453 353.028 217.453C363.347 217.453 371.731 225.456 371.731 235.329Z" fill="white"/>
<path d="M366.352 235.327C366.352 238.319 365.276 241.074 363.455 243.26C361.006 246.189 357.249 248.073 353.028 248.073C348.807 248.073 345.05 246.189 342.601 243.26C340.797 241.074 339.721 238.319 339.721 235.327C339.721 228.296 345.679 222.596 353.028 222.596C360.377 222.597 366.352 228.296 366.352 235.327Z" fill="url(#paint32_linear_558_3159)"/>
<path d="M363.456 243.26C361.006 246.189 357.249 248.073 353.028 248.073C348.808 248.073 345.051 246.189 342.601 243.26C345.051 240.33 348.808 238.446 353.028 238.446C357.249 238.446 361.006 240.33 363.456 243.26Z" fill="white"/>
<path d="M358.043 234.844C358.043 237.488 355.809 239.642 353.045 239.642C350.264 239.642 348.03 237.488 348.03 234.844C348.03 232.2 350.264 230.047 353.045 230.047C355.809 230.047 358.043 232.2 358.043 234.844Z" fill="white"/>
<path d="M438.996 239.269V239.663C438.996 240.39 438.379 240.98 437.619 240.98H382.195C381.435 240.98 380.818 240.39 380.818 239.663V239.269C380.818 238.542 381.435 237.952 382.195 237.952H437.619C438.38 237.952 438.996 238.542 438.996 239.269Z" fill="#C2D5FF"/>
<path d="M398.669 245.897C398.669 246.625 398.053 247.215 397.292 247.215H382.195C381.435 247.215 380.818 246.625 380.818 245.897C380.818 245.17 381.435 244.58 382.195 244.58H397.292C398.053 244.58 398.669 245.17 398.669 245.897Z" fill="#C2D5FF"/>
<path d="M419.758 245.897C419.758 246.625 419.141 247.215 418.381 247.215H403.759C402.999 247.215 402.382 246.625 402.382 245.897C402.382 245.17 402.999 244.58 403.759 244.58H418.381C419.141 244.58 419.758 245.17 419.758 245.897Z" fill="#C2D5FF"/>
<path d="M438.379 245.897C438.379 246.625 437.763 247.215 437.002 247.215H424.848C424.087 247.215 423.471 246.625 423.471 245.897C423.471 245.17 424.087 244.58 424.848 244.58H437.002C437.763 244.58 438.379 245.17 438.379 245.897Z" fill="#C2D5FF"/>
<path d="M438.996 232.686V233.08C438.996 233.807 438.379 234.397 437.619 234.397H382.195C381.435 234.397 380.818 233.807 380.818 233.08V232.686C380.818 231.958 381.435 231.369 382.195 231.369H437.619C438.38 231.369 438.996 231.958 438.996 232.686Z" fill="#C2D5FF"/>
<path d="M392.04 225.292H382.195C381.435 225.292 380.818 225.882 380.818 226.61V227.003C380.818 227.731 381.435 228.321 382.195 228.321H392.04C392.914 228.321 393.623 227.643 393.623 226.806C393.623 225.97 392.914 225.292 392.04 225.292Z" fill="#C2D5FF"/>
<path d="M430.915 225.292H402.604C401.729 225.292 401.021 225.97 401.021 226.806C401.021 227.643 401.729 228.32 402.604 228.32H430.915C431.789 228.32 432.498 227.643 432.498 226.806C432.498 225.97 431.789 225.292 430.915 225.292Z" fill="#C2D5FF"/>
<path d="M475.445 157.748C475.173 157.748 474.954 157.538 474.954 157.278V152.128C474.954 147.659 471.153 144.023 466.48 144.023H460.819C460.548 144.023 460.329 143.812 460.329 143.553C460.329 143.294 460.548 143.084 460.819 143.084H466.48C471.694 143.084 475.935 147.141 475.935 152.128V157.278C475.935 157.538 475.716 157.748 475.445 157.748Z" fill="#ADC8F7"/>
<path d="M466.48 198.695H460.819C460.548 198.695 460.328 198.485 460.328 198.226C460.328 197.966 460.548 197.756 460.819 197.756H466.48C471.152 197.756 474.954 194.12 474.954 189.65V184.5C474.954 184.241 475.173 184.031 475.444 184.031C475.716 184.031 475.935 184.241 475.935 184.5V189.65C475.935 194.638 471.694 198.695 466.48 198.695Z" fill="#ADC8F7"/>
<path d="M369.305 198.695H363.644C358.431 198.695 354.189 194.638 354.189 189.65V184.5C354.189 184.241 354.409 184.031 354.68 184.031C354.951 184.031 355.171 184.241 355.171 184.5V189.65C355.171 194.12 358.972 197.756 363.644 197.756H369.305C369.576 197.756 369.796 197.966 369.796 198.226C369.796 198.485 369.576 198.695 369.305 198.695Z" fill="#ADC8F7"/>
<path d="M354.68 157.748C354.409 157.748 354.189 157.538 354.189 157.278V152.128C354.189 147.141 358.431 143.084 363.644 143.084H369.305C369.576 143.084 369.796 143.294 369.796 143.553C369.796 143.812 369.576 144.023 369.305 144.023H363.644C358.972 144.023 355.171 147.659 355.171 152.128V157.278C355.171 157.538 354.951 157.748 354.68 157.748Z" fill="#ADC8F7"/>
<path d="M470.971 152.129V189.65C470.971 192.023 468.96 193.946 466.48 193.946H363.644C361.164 193.946 359.153 192.023 359.153 189.65V152.129C359.153 149.756 361.164 147.833 363.644 147.833H466.48C468.96 147.833 470.971 149.756 470.971 152.129Z" fill="url(#paint33_linear_558_3159)"/>
<path d="M401.389 170.889C401.389 179.926 393.715 187.252 384.269 187.252C374.823 187.252 367.165 179.926 367.165 170.889C367.165 161.852 374.823 154.526 384.269 154.526C393.715 154.526 401.389 161.852 401.389 170.889Z" fill="white"/>
<path d="M396.465 170.887C396.465 173.626 395.48 176.148 393.814 178.149C391.572 180.83 388.133 182.555 384.269 182.555C380.406 182.555 376.967 180.83 374.725 178.149C373.074 176.148 372.089 173.626 372.089 170.887C372.089 164.452 377.543 159.235 384.269 159.235C390.996 159.235 396.465 164.452 396.465 170.887Z" fill="url(#paint34_linear_558_3159)"/>
<path d="M393.814 178.149C391.572 180.83 388.133 182.555 384.269 182.555C380.406 182.555 376.967 180.83 374.725 178.149C376.967 175.467 380.406 173.743 384.269 173.743C388.133 173.743 391.572 175.467 393.814 178.149Z" fill="white"/>
<path d="M388.86 170.446C388.86 172.866 386.815 174.837 384.285 174.837C381.74 174.837 379.694 172.866 379.694 170.446C379.694 168.025 381.74 166.054 384.285 166.054C386.815 166.054 388.86 168.025 388.86 170.446Z" fill="white"/>
<path d="M462.96 174.496V174.856C462.96 175.522 462.396 176.062 461.699 176.062H410.968C410.272 176.062 409.707 175.522 409.707 174.856V174.496C409.707 173.83 410.272 173.29 410.968 173.29H461.699C462.396 173.29 462.96 173.83 462.96 174.496Z" fill="#C2D5FF"/>
<path d="M452.009 162.623V168.246C452.009 168.765 451.568 169.187 451.025 169.187H421.642C421.099 169.187 420.659 168.765 420.659 168.246V162.623C420.659 162.103 421.099 161.682 421.642 161.682H451.025C451.568 161.682 452.009 162.103 452.009 162.623Z" fill="#C2D5FF"/>
<path d="M426.047 180.563C426.047 181.229 425.482 181.769 424.786 181.769H410.968C410.271 181.769 409.707 181.229 409.707 180.563C409.707 179.897 410.271 179.357 410.968 179.357H424.786C425.482 179.357 426.047 179.897 426.047 180.563Z" fill="#C2D5FF"/>
<path d="M445.35 180.563C445.35 181.229 444.786 181.769 444.09 181.769H430.706C430.01 181.769 429.446 181.229 429.446 180.563C429.446 179.897 430.01 179.357 430.706 179.357H444.09C444.786 179.357 445.35 179.897 445.35 180.563Z" fill="#C2D5FF"/>
<path d="M462.395 180.563C462.395 181.229 461.831 181.769 461.135 181.769H450.009C449.313 181.769 448.749 181.229 448.749 180.563C448.749 179.897 449.313 179.357 450.009 179.357H461.135C461.831 179.357 462.395 179.897 462.395 180.563Z" fill="#C2D5FF"/>
<path d="M473.908 90.6683C473.908 107.861 459.342 121.804 441.371 121.804C423.391 121.804 408.826 107.861 408.826 90.6683C408.826 73.476 423.391 59.5415 441.371 59.5415C459.342 59.5415 473.908 73.476 473.908 90.6683Z" fill="url(#paint35_linear_558_3159)"/>
<path d="M434.757 90.7861C434.757 93.6994 432.287 96.0628 429.242 96.0628C426.196 96.0628 423.726 93.6994 423.726 90.7861C423.726 87.8677 426.196 85.5044 429.242 85.5044C432.287 85.5044 434.757 87.8677 434.757 90.7861Z" fill="white"/>
<path d="M455.537 78.7563C455.537 81.6696 453.066 84.033 450.021 84.033C446.976 84.033 444.505 81.6696 444.505 78.7563C444.505 75.8379 446.976 73.4746 450.021 73.4746C453.067 73.4745 455.537 75.8379 455.537 78.7563Z" fill="white"/>
<path d="M455.131 102.594C455.131 105.507 452.661 107.871 449.615 107.871C446.57 107.871 444.1 105.507 444.1 102.594C444.1 99.6756 446.57 97.3123 449.615 97.3123C452.661 97.3123 455.131 99.6756 455.131 102.594Z" fill="white"/>
<path d="M449.269 103.632L426.712 90.7774L449.269 77.9346L450.775 80.3548L432.465 90.7783L450.775 101.212L449.269 103.632Z" fill="white"/>
<path d="M190.408 64.4857H186.67C186.399 64.4857 186.179 64.2756 186.179 64.0164C186.179 63.7572 186.399 63.5471 186.67 63.5471H190.408C195.479 63.5471 199.605 59.6003 199.605 54.749V51.3382C199.605 51.079 199.824 50.8689 200.095 50.8689C200.367 50.8689 200.586 51.079 200.586 51.3382V54.749C200.586 60.1179 196.02 64.4857 190.408 64.4857Z" fill="url(#paint36_linear_558_3159)"/>
<path d="M150.826 64.5659H147.26C141.649 64.5659 137.083 60.198 137.083 54.8293V51.2535C137.083 50.9943 137.302 50.7842 137.573 50.7842C137.844 50.7842 138.064 50.9943 138.064 51.2535V54.8293C138.064 59.6805 142.189 63.6271 147.26 63.6271H150.826C151.097 63.6271 151.316 63.8372 151.316 64.0964C151.317 64.3557 151.097 64.5659 150.826 64.5659Z" fill="url(#paint37_linear_558_3159)"/>
<path d="M137.573 22.4515C137.302 22.4515 137.083 22.2414 137.083 21.9822V18.5715C137.083 13.2026 141.649 8.83472 147.26 8.83472H150.998C151.269 8.83472 151.488 9.04485 151.488 9.30404C151.488 9.56323 151.269 9.77336 150.998 9.77336H147.26C142.189 9.77336 138.064 13.7202 138.064 18.5714V21.9821C138.064 22.2414 137.844 22.4515 137.573 22.4515Z" fill="url(#paint38_linear_558_3159)"/>
<path d="M200.095 22.5314C199.824 22.5314 199.604 22.3213 199.604 22.062V18.4862C199.604 13.635 195.478 9.6884 190.407 9.6884H186.842C186.571 9.6884 186.352 9.47827 186.352 9.21908C186.352 8.95989 186.571 8.74976 186.842 8.74976H190.407C196.019 8.74976 200.586 13.1176 200.586 18.4863V22.0621C200.586 22.3212 200.366 22.5314 200.095 22.5314Z" fill="url(#paint39_linear_558_3159)"/>
<path d="M195.908 18.4866V54.7465C195.908 57.6526 193.445 60.0083 190.407 60.0083H181.282L171.695 72.7965C170.983 73.7473 169.505 73.7476 168.791 72.7972L159.194 60.0083H147.248C144.217 60.0083 141.76 57.6575 141.76 54.7577V18.4866C141.76 15.5806 144.222 13.2249 147.26 13.2249H190.407C193.445 13.2249 195.908 15.5806 195.908 18.4866Z" fill="url(#paint40_linear_558_3159)"/>
<path d="M159.225 35.386C159.225 37.6554 157.301 39.4964 154.929 39.4964C152.556 39.4964 150.64 37.6554 150.64 35.386C150.64 33.1245 152.556 31.2834 154.929 31.2834C157.301 31.2834 159.225 33.1245 159.225 35.386Z" fill="white"/>
<path d="M173.126 35.386C173.126 37.6554 171.202 39.4964 168.83 39.4964C166.457 39.4964 164.541 37.6554 164.541 35.386C164.541 33.1245 166.457 31.2834 168.83 31.2834C171.202 31.2834 173.126 33.1245 173.126 35.386Z" fill="white"/>
<path d="M187.027 35.386C187.027 37.6554 185.102 39.4964 182.73 39.4964C180.358 39.4964 178.442 37.6554 178.442 35.386C178.442 33.1245 180.358 31.2834 182.73 31.2834C185.102 31.2834 187.027 33.1245 187.027 35.386Z" fill="white"/>
<defs>
<linearGradient id="paint0_linear_558_3159" x1="59.5395" y1="312.684" x2="88.2005" y2="312.684" gradientUnits="userSpaceOnUse">
<stop stop-color="#E7ECFF"/>
<stop offset="1" stop-color="#C2D5FF"/>
</linearGradient>
<linearGradient id="paint1_linear_558_3159" x1="2.54739e-05" y1="307.441" x2="60.5088" y2="307.441" gradientUnits="userSpaceOnUse">
<stop stop-color="#E7ECFF"/>
<stop offset="1" stop-color="#C2D5FF"/>
</linearGradient>
<linearGradient id="paint2_linear_558_3159" x1="38.2389" y1="291.945" x2="70.1876" y2="296.341" gradientUnits="userSpaceOnUse">
<stop stop-color="#E7ECFF"/>
<stop offset="1" stop-color="#C2D5FF"/>
</linearGradient>
<linearGradient id="paint3_linear_558_3159" x1="19.5374" y1="310.061" x2="46.0666" y2="297.933" gradientUnits="userSpaceOnUse">
<stop stop-color="#E7ECFF"/>
<stop offset="1" stop-color="#C2D5FF"/>
</linearGradient>
<linearGradient id="paint4_linear_558_3159" x1="335.858" y1="39.2191" x2="350.888" y2="34.3413" gradientUnits="userSpaceOnUse">
<stop stop-color="#E7ECFF"/>
<stop offset="1" stop-color="#C2D5FF"/>
</linearGradient>
<linearGradient id="paint5_linear_558_3159" x1="336.315" y1="34.2584" x2="402.553" y2="12.7618" gradientUnits="userSpaceOnUse">
<stop stop-color="#E7ECFF"/>
<stop offset="1" stop-color="#C2D5FF"/>
</linearGradient>
<linearGradient id="paint6_linear_558_3159" x1="150.981" y1="220.296" x2="422.722" y2="220.296" gradientUnits="userSpaceOnUse">
<stop stop-color="#E7ECFF"/>
<stop offset="1" stop-color="#C2D5FF"/>
</linearGradient>
<linearGradient id="paint7_linear_558_3159" x1="286.716" y1="265.011" x2="287.037" y2="105.713" gradientUnits="userSpaceOnUse">
<stop stop-color="#E7ECFF"/>
<stop offset="1" stop-color="#C2D5FF"/>
</linearGradient>
<linearGradient id="paint8_linear_558_3159" x1="284.212" y1="331.487" x2="287.67" y2="233.484" gradientUnits="userSpaceOnUse">
<stop stop-color="#E7ECFF"/>
<stop offset="1" stop-color="#C2D5FF"/>
</linearGradient>
<linearGradient id="paint9_linear_558_3159" x1="287.198" y1="240.384" x2="286.792" y2="354.147" gradientUnits="userSpaceOnUse">
<stop stop-color="#E7ECFF"/>
<stop offset="1" stop-color="#C2D5FF"/>
</linearGradient>
<linearGradient id="paint10_linear_558_3159" x1="78.3369" y1="352.699" x2="109.883" y2="352.699" gradientUnits="userSpaceOnUse">
<stop offset="3.2e-07" stop-color="#FF8888"/>
<stop offset="1" stop-color="#F24E4E"/>
</linearGradient>
<linearGradient id="paint11_linear_558_3159" x1="74.1698" y1="268.423" x2="112.48" y2="270.946" gradientUnits="userSpaceOnUse">
<stop offset="2.2e-07" stop-color="#5C5CA0"/>
<stop offset="1" stop-color="#434389"/>
</linearGradient>
<linearGradient id="paint12_linear_558_3159" x1="101.692" y1="352.699" x2="133.228" y2="352.699" gradientUnits="userSpaceOnUse">
<stop offset="3.2e-07" stop-color="#FF8888"/>
<stop offset="1" stop-color="#F24E4E"/>
</linearGradient>
<linearGradient id="paint13_linear_558_3159" x1="97.5235" y1="268.423" x2="135.834" y2="270.946" gradientUnits="userSpaceOnUse">
<stop offset="2.2e-07" stop-color="#5C5CA0"/>
<stop offset="1" stop-color="#434389"/>
</linearGradient>
<linearGradient id="paint14_linear_558_3159" x1="134.83" y1="-101.704" x2="162.416" y2="-212.429" gradientUnits="userSpaceOnUse">
<stop offset="3.2e-07" stop-color="#FF8888"/>
<stop offset="1" stop-color="#F24E4E"/>
</linearGradient>
<linearGradient id="paint15_linear_558_3159" x1="112.826" y1="132.139" x2="101.861" y2="227.233" gradientUnits="userSpaceOnUse">
<stop offset="3.2e-07" stop-color="#FF8888"/>
<stop offset="1" stop-color="#F24E4E"/>
</linearGradient>
<linearGradient id="paint16_linear_558_3159" x1="87.8755" y1="85.9153" x2="131.858" y2="85.9153" gradientUnits="userSpaceOnUse">
<stop stop-color="#771E24"/>
<stop offset="1" stop-color="#47090E"/>
</linearGradient>
<linearGradient id="paint17_linear_558_3159" x1="161.686" y1="151.647" x2="150.562" y2="215.996" gradientUnits="userSpaceOnUse">
<stop offset="3.2e-07" stop-color="#FF8888"/>
<stop offset="1" stop-color="#F24E4E"/>
</linearGradient>
<linearGradient id="paint18_linear_558_3159" x1="44.6078" y1="75.0865" x2="32.5385" y2="68.9902" gradientUnits="userSpaceOnUse">
<stop offset="3.2e-07" stop-color="#78A7FF"/>
<stop offset="1" stop-color="#3D79F3"/>
</linearGradient>
<linearGradient id="paint19_linear_558_3159" x1="29.5038" y1="72.2445" x2="47.426" y2="72.2445" gradientUnits="userSpaceOnUse">
<stop stop-color="#E7ECFF"/>
<stop offset="1" stop-color="#C2D5FF"/>
</linearGradient>
<linearGradient id="paint20_linear_558_3159" x1="63.178" y1="84.1644" x2="37.5792" y2="71.2339" gradientUnits="userSpaceOnUse">
<stop offset="3.2e-07" stop-color="#78A7FF"/>
<stop offset="1" stop-color="#3D79F3"/>
</linearGradient>
<linearGradient id="paint21_linear_558_3159" x1="-31.6296" y1="117.369" x2="-46.867" y2="122.139" gradientUnits="userSpaceOnUse">
<stop offset="3.2e-07" stop-color="#78A7FF"/>
<stop offset="1" stop-color="#3D79F3"/>
</linearGradient>
<linearGradient id="paint22_linear_558_3159" x1="75.9057" y1="96.2658" x2="72.5321" y2="93.8603" gradientUnits="userSpaceOnUse">
<stop offset="3.2e-07" stop-color="#78A7FF"/>
<stop offset="1" stop-color="#3D79F3"/>
</linearGradient>
<linearGradient id="paint23_linear_558_3159" x1="43.0993" y1="74.8822" x2="35.5694" y2="71.0787" gradientUnits="userSpaceOnUse">
<stop offset="3.2e-07" stop-color="#78A7FF"/>
<stop offset="1" stop-color="#3D79F3"/>
</linearGradient>
<linearGradient id="paint24_linear_558_3159" x1="63.127" y1="99.6427" x2="54.8532" y2="95.4634" gradientUnits="userSpaceOnUse">
<stop offset="3.2e-07" stop-color="#78A7FF"/>
<stop offset="1" stop-color="#3D79F3"/>
</linearGradient>
<linearGradient id="paint25_linear_558_3159" x1="49.5145" y1="101.856" x2="57.8944" y2="106.089" gradientUnits="userSpaceOnUse">
<stop offset="3.2e-07" stop-color="#78A7FF"/>
<stop offset="1" stop-color="#3D79F3"/>
</linearGradient>
<linearGradient id="paint26_linear_558_3159" x1="-45.5067" y1="79.119" x2="-76.5026" y2="90.6067" gradientUnits="userSpaceOnUse">
<stop offset="2.2e-07" stop-color="#FFBB83"/>
<stop offset="1" stop-color="#FF9D45"/>
</linearGradient>
<linearGradient id="paint27_linear_558_3159" x1="3.10357" y1="114.687" x2="-2.609" y2="135.5" gradientUnits="userSpaceOnUse">
<stop offset="2.2e-07" stop-color="#FFBB83"/>
<stop offset="1" stop-color="#FF9D45"/>
</linearGradient>
<linearGradient id="paint28_linear_558_3159" x1="-13.334" y1="43.5941" x2="-35.331" y2="39.1039" gradientUnits="userSpaceOnUse">
<stop offset="2.2e-07" stop-color="#FFBB83"/>
<stop offset="1" stop-color="#FF9D45"/>
</linearGradient>
<linearGradient id="paint29_linear_558_3159" x1="101.076" y1="97.6132" x2="102.648" y2="97.6132" gradientUnits="userSpaceOnUse">
<stop stop-color="#771E24"/>
<stop offset="1" stop-color="#47090E"/>
</linearGradient>
<linearGradient id="paint30_linear_558_3159" x1="100.571" y1="95.3789" x2="105.65" y2="95.3789" gradientUnits="userSpaceOnUse">
<stop stop-color="#771E24"/>
<stop offset="1" stop-color="#47090E"/>
</linearGradient>
<linearGradient id="paint31_linear_558_3159" x1="386.669" y1="271.289" x2="386.669" y2="202.098" gradientUnits="userSpaceOnUse">
<stop stop-color="#E7ECFF"/>
<stop offset="1" stop-color="#C2D5FF"/>
</linearGradient>
<linearGradient id="paint32_linear_558_3159" x1="339.721" y1="235.335" x2="366.352" y2="235.335" gradientUnits="userSpaceOnUse">
<stop offset="2.2e-07" stop-color="#FFBB83"/>
<stop offset="1" stop-color="#FF9D45"/>
</linearGradient>
<linearGradient id="paint33_linear_558_3159" x1="415.062" y1="203.806" x2="415.062" y2="140.471" gradientUnits="userSpaceOnUse">
<stop stop-color="#E7ECFF"/>
<stop offset="1" stop-color="#C2D5FF"/>
</linearGradient>
<linearGradient id="paint34_linear_558_3159" x1="372.089" y1="170.895" x2="396.465" y2="170.895" gradientUnits="userSpaceOnUse">
<stop offset="3.2e-07" stop-color="#78A7FF"/>
<stop offset="1" stop-color="#3D79F3"/>
</linearGradient>
<linearGradient id="paint35_linear_558_3159" x1="408.826" y1="90.6727" x2="473.908" y2="90.6727" gradientUnits="userSpaceOnUse">
<stop stop-color="#E7ECFF"/>
<stop offset="1" stop-color="#C2D5FF"/>
</linearGradient>
<linearGradient id="paint36_linear_558_3159" x1="186.179" y1="57.6772" x2="200.586" y2="57.6772" gradientUnits="userSpaceOnUse">
<stop stop-color="#E7ECFF"/>
<stop offset="1" stop-color="#C2D5FF"/>
</linearGradient>
<linearGradient id="paint37_linear_558_3159" x1="144.2" y1="50.7841" x2="144.2" y2="64.5659" gradientUnits="userSpaceOnUse">
<stop stop-color="#E7ECFF"/>
<stop offset="1" stop-color="#C2D5FF"/>
</linearGradient>
<linearGradient id="paint38_linear_558_3159" x1="151.488" y1="15.6431" x2="137.082" y2="15.6431" gradientUnits="userSpaceOnUse">
<stop stop-color="#E7ECFF"/>
<stop offset="1" stop-color="#C2D5FF"/>
</linearGradient>
<linearGradient id="paint39_linear_558_3159" x1="193.468" y1="22.5314" x2="193.468" y2="8.74967" gradientUnits="userSpaceOnUse">
<stop stop-color="#E7ECFF"/>
<stop offset="1" stop-color="#C2D5FF"/>
</linearGradient>
<linearGradient id="paint40_linear_558_3159" x1="141.76" y1="43.3673" x2="195.908" y2="43.3673" gradientUnits="userSpaceOnUse">
<stop stop-color="#E7ECFF"/>
<stop offset="1" stop-color="#C2D5FF"/>
</linearGradient>
</defs>
</svg>
