<svg width="253" height="48" viewBox="0 0 253 48" fill="none" xmlns="http://www.w3.org/2000/svg">
<g clip-path="url(#clip0_557_1671)">
<g clip-path="url(#clip1_557_1671)">
<path d="M0 8C0 3.58172 3.58172 0 8 0H245C249.418 0 253 3.58172 253 8V40C253 44.4183 249.418 48 245 48H8C3.58172 48 0 44.4183 0 40V8Z" fill="url(#paint0_linear_557_1671)"/>
<path d="M82.608 18.3636H85.3807V26.4091C85.3769 27.1629 85.197 27.822 84.8409 28.3864C84.4848 28.947 83.9924 29.3826 83.3636 29.6932C82.7386 30.0038 82.0152 30.1591 81.1932 30.1591C80.4659 30.1591 79.8049 30.0322 79.2102 29.7784C78.6193 29.5246 78.1477 29.1307 77.7955 28.5966C77.447 28.0625 77.2746 27.3788 77.2784 26.5455H80.0795C80.0909 26.8447 80.1477 27.1004 80.25 27.3125C80.3561 27.5208 80.5019 27.678 80.6875 27.7841C80.8731 27.8902 81.0947 27.9432 81.3523 27.9432C81.6212 27.9432 81.8485 27.8864 82.0341 27.7727C82.2197 27.6553 82.3598 27.483 82.4545 27.2557C82.553 27.0284 82.6042 26.7462 82.608 26.4091V18.3636ZM91.2202 30.1648C90.3035 30.1648 89.5156 29.9773 88.8565 29.6023C88.2012 29.2235 87.6955 28.697 87.3395 28.0227C86.9872 27.3447 86.8111 26.5587 86.8111 25.6648C86.8111 24.767 86.9872 23.9811 87.3395 23.3068C87.6955 22.6288 88.2012 22.1023 88.8565 21.7273C89.5156 21.3485 90.3035 21.1591 91.2202 21.1591C92.1368 21.1591 92.9228 21.3485 93.5781 21.7273C94.2372 22.1023 94.7429 22.6288 95.0952 23.3068C95.4512 23.9811 95.6293 24.767 95.6293 25.6648C95.6293 26.5587 95.4512 27.3447 95.0952 28.0227C94.7429 28.697 94.2372 29.2235 93.5781 29.6023C92.9228 29.9773 92.1368 30.1648 91.2202 30.1648ZM91.2372 28.0682C91.5705 28.0682 91.8527 27.9659 92.0838 27.7614C92.3149 27.5568 92.491 27.2727 92.6122 26.9091C92.7372 26.5455 92.7997 26.125 92.7997 25.6477C92.7997 25.1629 92.7372 24.7386 92.6122 24.375C92.491 24.0114 92.3149 23.7273 92.0838 23.5227C91.8527 23.3182 91.5705 23.2159 91.2372 23.2159C90.8925 23.2159 90.6009 23.3182 90.3622 23.5227C90.1274 23.7273 89.9474 24.0114 89.8224 24.375C89.7012 24.7386 89.6406 25.1629 89.6406 25.6477C89.6406 26.125 89.7012 26.5455 89.8224 26.9091C89.9474 27.2727 90.1274 27.5568 90.3622 27.7614C90.6009 27.9659 90.8925 28.0682 91.2372 28.0682ZM97.0526 30V21.2727H99.831V30H97.0526ZM98.4446 20.2557C98.0545 20.2557 97.7192 20.1269 97.4389 19.8693C97.1586 19.608 97.0185 19.2936 97.0185 18.9261C97.0185 18.5625 97.1586 18.2519 97.4389 17.9943C97.7192 17.733 98.0545 17.6023 98.4446 17.6023C98.8385 17.6023 99.1738 17.733 99.4503 17.9943C99.7306 18.2519 99.8707 18.5625 99.8707 18.9261C99.8707 19.2936 99.7306 19.608 99.4503 19.8693C99.1738 20.1269 98.8385 20.2557 98.4446 20.2557ZM104.378 25.0227V30H101.599V21.2727H104.241V22.875H104.338C104.531 22.3409 104.861 21.9223 105.327 21.6193C105.793 21.3125 106.348 21.1591 106.991 21.1591C107.605 21.1591 108.137 21.2973 108.588 21.5739C109.043 21.8466 109.395 22.2292 109.645 22.7216C109.899 23.2102 110.024 23.7822 110.02 24.4375V30H107.241V24.983C107.245 24.4981 107.122 24.1193 106.872 23.8466C106.626 23.5739 106.283 23.4375 105.844 23.4375C105.552 23.4375 105.295 23.5019 105.071 23.6307C104.851 23.7557 104.681 23.9356 104.56 24.1705C104.442 24.4053 104.382 24.6894 104.378 25.0227ZM117.967 30L114.581 18.3636H117.689L119.445 25.9886H119.541L121.547 18.3636H124.081L126.087 26.0057H126.183L127.945 18.3636H131.047L127.666 30H124.956L122.859 22.9432H122.768L120.672 30H117.967ZM133.7 30.1477C133.143 30.1477 132.649 30.0549 132.217 29.8693C131.789 29.6799 131.45 29.3958 131.2 29.017C130.954 28.6345 130.831 28.1553 130.831 27.5795C130.831 27.0947 130.916 26.6856 131.087 26.3523C131.257 26.0189 131.492 25.7481 131.791 25.5398C132.09 25.3314 132.435 25.1742 132.825 25.0682C133.215 24.9583 133.632 24.8845 134.075 24.8466C134.571 24.8011 134.971 24.7538 135.274 24.7045C135.577 24.6515 135.797 24.5777 135.933 24.483C136.073 24.3845 136.143 24.2462 136.143 24.0682V24.0398C136.143 23.7481 136.043 23.5227 135.842 23.3636C135.642 23.2045 135.371 23.125 135.03 23.125C134.662 23.125 134.367 23.2045 134.143 23.3636C133.92 23.5227 133.778 23.7424 133.717 24.0227L131.155 23.9318C131.231 23.4015 131.426 22.928 131.74 22.5114C132.058 22.0909 132.494 21.7614 133.047 21.5227C133.604 21.2803 134.272 21.1591 135.053 21.1591C135.609 21.1591 136.123 21.2254 136.592 21.358C137.062 21.4867 137.471 21.6761 137.82 21.9261C138.168 22.1723 138.437 22.4754 138.626 22.8352C138.82 23.1951 138.916 23.6061 138.916 24.0682V30H136.303V28.7841H136.234C136.079 29.0795 135.88 29.3295 135.638 29.5341C135.399 29.7386 135.117 29.892 134.791 29.9943C134.469 30.0966 134.106 30.1477 133.7 30.1477ZM134.558 28.3295C134.857 28.3295 135.126 28.2689 135.365 28.1477C135.607 28.0265 135.801 27.8598 135.945 27.6477C136.089 27.4318 136.161 27.1818 136.161 26.8977V26.0682C136.081 26.1098 135.984 26.1477 135.871 26.1818C135.761 26.2159 135.64 26.2481 135.507 26.2784C135.375 26.3087 135.238 26.3352 135.098 26.358C134.958 26.3807 134.823 26.4015 134.695 26.4205C134.433 26.4621 134.21 26.5265 134.024 26.6136C133.842 26.7008 133.702 26.8144 133.604 26.9545C133.509 27.0909 133.462 27.2538 133.462 27.4432C133.462 27.7311 133.564 27.9508 133.768 28.1023C133.977 28.2538 134.24 28.3295 134.558 28.3295ZM140.615 30V21.2727H143.393V30H140.615ZM142.007 20.2557C141.617 20.2557 141.282 20.1269 141.001 19.8693C140.721 19.608 140.581 19.2936 140.581 18.9261C140.581 18.5625 140.721 18.2519 141.001 17.9943C141.282 17.733 141.617 17.6023 142.007 17.6023C142.401 17.6023 142.736 17.733 143.013 17.9943C143.293 18.2519 143.433 18.5625 143.433 18.9261C143.433 19.2936 143.293 19.608 143.013 19.8693C142.736 20.1269 142.401 20.2557 142.007 20.2557ZM150.088 21.2727V23.3182H144.582V21.2727H150.088ZM145.736 19.1818H148.514V27.2557C148.514 27.4261 148.541 27.5644 148.594 27.6705C148.651 27.7727 148.732 27.8466 148.838 27.892C148.944 27.9337 149.071 27.9545 149.219 27.9545C149.325 27.9545 149.437 27.9451 149.554 27.9261C149.675 27.9034 149.766 27.8845 149.827 27.8693L150.247 29.875C150.115 29.9129 149.927 29.9602 149.685 30.017C149.446 30.0739 149.16 30.1098 148.827 30.125C148.175 30.1553 147.616 30.0795 147.151 29.8977C146.688 29.7121 146.334 29.4242 146.088 29.0341C145.846 28.6439 145.728 28.1534 145.736 27.5625V19.1818ZM154.472 18.3636V30H151.693V18.3636H154.472ZM156.24 30V21.2727H159.018V30H156.24ZM157.632 20.2557C157.242 20.2557 156.907 20.1269 156.626 19.8693C156.346 19.608 156.206 19.2936 156.206 18.9261C156.206 18.5625 156.346 18.2519 156.626 17.9943C156.907 17.733 157.242 17.6023 157.632 17.6023C158.026 17.6023 158.361 17.733 158.638 17.9943C158.918 18.2519 159.058 18.5625 159.058 18.9261C159.058 19.2936 158.918 19.608 158.638 19.8693C158.361 20.1269 158.026 20.2557 157.632 20.2557ZM168.406 23.9375L165.855 24.0057C165.829 23.8239 165.757 23.6629 165.639 23.5227C165.522 23.3788 165.368 23.267 165.179 23.1875C164.993 23.1042 164.777 23.0625 164.531 23.0625C164.209 23.0625 163.935 23.1269 163.707 23.2557C163.484 23.3845 163.374 23.5587 163.378 23.7784C163.374 23.9489 163.442 24.0966 163.582 24.2216C163.726 24.3466 163.982 24.447 164.349 24.5227L166.031 24.8409C166.902 25.0076 167.55 25.2841 167.974 25.6705C168.402 26.0568 168.618 26.5682 168.622 27.2045C168.618 27.803 168.44 28.3239 168.088 28.767C167.74 29.2102 167.262 29.5549 166.656 29.8011C166.05 30.0436 165.357 30.1648 164.577 30.1648C163.33 30.1648 162.348 29.9091 161.628 29.3977C160.912 28.8826 160.503 28.1932 160.401 27.3295L163.145 27.2614C163.205 27.5795 163.363 27.822 163.616 27.9886C163.87 28.1553 164.194 28.2386 164.588 28.2386C164.944 28.2386 165.234 28.1723 165.457 28.0398C165.681 27.9072 165.795 27.7311 165.798 27.5114C165.795 27.3144 165.707 27.1572 165.537 27.0398C165.366 26.9186 165.099 26.8239 164.736 26.7557L163.213 26.4659C162.338 26.3068 161.687 26.0133 161.259 25.5852C160.83 25.1534 160.618 24.6042 160.622 23.9375C160.618 23.3542 160.774 22.8561 161.088 22.4432C161.402 22.0265 161.849 21.7083 162.429 21.4886C163.009 21.2689 163.692 21.1591 164.48 21.1591C165.662 21.1591 166.594 21.4072 167.276 21.9034C167.957 22.3958 168.334 23.0739 168.406 23.9375ZM174.916 21.2727V23.3182H169.411V21.2727H174.916ZM170.564 19.1818H173.342V27.2557C173.342 27.4261 173.369 27.5644 173.422 27.6705C173.479 27.7727 173.56 27.8466 173.666 27.892C173.772 27.9337 173.899 27.9545 174.047 27.9545C174.153 27.9545 174.265 27.9451 174.382 27.9261C174.503 27.9034 174.594 27.8845 174.655 27.8693L175.075 29.875C174.943 29.9129 174.755 29.9602 174.513 30.017C174.274 30.0739 173.988 30.1098 173.655 30.125C173.003 30.1553 172.445 30.0795 171.979 29.8977C171.517 29.7121 171.162 29.4242 170.916 29.0341C170.674 28.6439 170.556 28.1534 170.564 27.5625V19.1818Z" fill="#FBFBFB"/>
</g>
</g>
<defs>
<linearGradient id="paint0_linear_557_1671" x1="21.0833" y1="24" x2="231.917" y2="24" gradientUnits="userSpaceOnUse">
<stop stop-color="#FF5757"/>
<stop offset="0.00390625" stop-color="#FF5758"/>
<stop offset="0.0078125" stop-color="#FE5758"/>
<stop offset="0.0117187" stop-color="#FE5759"/>
<stop offset="0.015625" stop-color="#FD575A"/>
<stop offset="0.0195312" stop-color="#FD575A"/>
<stop offset="0.0234375" stop-color="#FC575B"/>
<stop offset="0.0273438" stop-color="#FC575C"/>
<stop offset="0.03125" stop-color="#FB575C"/>
<stop offset="0.0351562" stop-color="#FB575D"/>
<stop offset="0.0390625" stop-color="#FB575E"/>
<stop offset="0.0429687" stop-color="#FA575E"/>
<stop offset="0.046875" stop-color="#FA575F"/>
<stop offset="0.0507812" stop-color="#F9575F"/>
<stop offset="0.0546875" stop-color="#F95760"/>
<stop offset="0.0585938" stop-color="#F85761"/>
<stop offset="0.0625" stop-color="#F85761"/>
<stop offset="0.0664062" stop-color="#F75762"/>
<stop offset="0.0703125" stop-color="#F75763"/>
<stop offset="0.0742187" stop-color="#F65763"/>
<stop offset="0.078125" stop-color="#F65764"/>
<stop offset="0.0820312" stop-color="#F65765"/>
<stop offset="0.0859375" stop-color="#F55765"/>
<stop offset="0.0898437" stop-color="#F55766"/>
<stop offset="0.09375" stop-color="#F45767"/>
<stop offset="0.0976562" stop-color="#F45667"/>
<stop offset="0.101562" stop-color="#F35668"/>
<stop offset="0.105469" stop-color="#F35669"/>
<stop offset="0.109375" stop-color="#F25669"/>
<stop offset="0.113281" stop-color="#F2566A"/>
<stop offset="0.117188" stop-color="#F2566B"/>
<stop offset="0.121094" stop-color="#F1566B"/>
<stop offset="0.125" stop-color="#F1566C"/>
<stop offset="0.128906" stop-color="#F0566D"/>
<stop offset="0.132812" stop-color="#F0566D"/>
<stop offset="0.136719" stop-color="#EF566E"/>
<stop offset="0.140625" stop-color="#EF566F"/>
<stop offset="0.144531" stop-color="#EE566F"/>
<stop offset="0.148437" stop-color="#EE5670"/>
<stop offset="0.152344" stop-color="#ED5671"/>
<stop offset="0.15625" stop-color="#ED5671"/>
<stop offset="0.160156" stop-color="#ED5672"/>
<stop offset="0.164062" stop-color="#EC5673"/>
<stop offset="0.167969" stop-color="#EC5673"/>
<stop offset="0.171875" stop-color="#EB5674"/>
<stop offset="0.175781" stop-color="#EB5674"/>
<stop offset="0.179687" stop-color="#EA5675"/>
<stop offset="0.183594" stop-color="#EA5676"/>
<stop offset="0.1875" stop-color="#E95676"/>
<stop offset="0.191406" stop-color="#E95677"/>
<stop offset="0.195312" stop-color="#E95678"/>
<stop offset="0.199219" stop-color="#E85678"/>
<stop offset="0.203125" stop-color="#E85679"/>
<stop offset="0.207031" stop-color="#E7567A"/>
<stop offset="0.210938" stop-color="#E7567A"/>
<stop offset="0.214844" stop-color="#E6567B"/>
<stop offset="0.21875" stop-color="#E6567C"/>
<stop offset="0.222656" stop-color="#E5567C"/>
<stop offset="0.226562" stop-color="#E5567D"/>
<stop offset="0.230469" stop-color="#E4567E"/>
<stop offset="0.234375" stop-color="#E4567E"/>
<stop offset="0.238281" stop-color="#E4567F"/>
<stop offset="0.242188" stop-color="#E35680"/>
<stop offset="0.246094" stop-color="#E35680"/>
<stop offset="0.25" stop-color="#E25681"/>
<stop offset="0.253906" stop-color="#E25682"/>
<stop offset="0.257812" stop-color="#E15682"/>
<stop offset="0.261719" stop-color="#E15683"/>
<stop offset="0.265625" stop-color="#E05684"/>
<stop offset="0.269531" stop-color="#E05684"/>
<stop offset="0.273437" stop-color="#E05685"/>
<stop offset="0.277344" stop-color="#DF5686"/>
<stop offset="0.28125" stop-color="#DF5686"/>
<stop offset="0.285156" stop-color="#DE5687"/>
<stop offset="0.289062" stop-color="#DE5688"/>
<stop offset="0.292969" stop-color="#DD5688"/>
<stop offset="0.296875" stop-color="#DD5689"/>
<stop offset="0.300781" stop-color="#DC5589"/>
<stop offset="0.304687" stop-color="#DC558A"/>
<stop offset="0.308594" stop-color="#DC558B"/>
<stop offset="0.3125" stop-color="#DB558B"/>
<stop offset="0.316406" stop-color="#DB558C"/>
<stop offset="0.320312" stop-color="#DA558D"/>
<stop offset="0.324219" stop-color="#DA558D"/>
<stop offset="0.328125" stop-color="#D9558E"/>
<stop offset="0.332031" stop-color="#D9558F"/>
<stop offset="0.335937" stop-color="#D8558F"/>
<stop offset="0.339844" stop-color="#D85590"/>
<stop offset="0.34375" stop-color="#D75591"/>
<stop offset="0.347656" stop-color="#D75591"/>
<stop offset="0.351562" stop-color="#D75592"/>
<stop offset="0.355469" stop-color="#D65593"/>
<stop offset="0.359375" stop-color="#D65593"/>
<stop offset="0.363281" stop-color="#D55594"/>
<stop offset="0.367187" stop-color="#D55595"/>
<stop offset="0.371094" stop-color="#D45595"/>
<stop offset="0.375" stop-color="#D45596"/>
<stop offset="0.378906" stop-color="#D35597"/>
<stop offset="0.382812" stop-color="#D35597"/>
<stop offset="0.386719" stop-color="#D35598"/>
<stop offset="0.390625" stop-color="#D25599"/>
<stop offset="0.394531" stop-color="#D25599"/>
<stop offset="0.398438" stop-color="#D1559A"/>
<stop offset="0.402344" stop-color="#D1559B"/>
<stop offset="0.40625" stop-color="#D0559B"/>
<stop offset="0.410156" stop-color="#D0559C"/>
<stop offset="0.414062" stop-color="#CF559D"/>
<stop offset="0.417969" stop-color="#CF559D"/>
<stop offset="0.421875" stop-color="#CE559E"/>
<stop offset="0.425781" stop-color="#CE559F"/>
<stop offset="0.429688" stop-color="#CE559F"/>
<stop offset="0.433594" stop-color="#CD55A0"/>
<stop offset="0.4375" stop-color="#CD55A0"/>
<stop offset="0.441406" stop-color="#CC55A1"/>
<stop offset="0.445312" stop-color="#CC55A2"/>
<stop offset="0.449219" stop-color="#CB55A2"/>
<stop offset="0.453125" stop-color="#CB55A3"/>
<stop offset="0.457031" stop-color="#CA55A4"/>
<stop offset="0.460938" stop-color="#CA55A4"/>
<stop offset="0.464844" stop-color="#CA55A5"/>
<stop offset="0.46875" stop-color="#C955A6"/>
<stop offset="0.472656" stop-color="#C955A6"/>
<stop offset="0.476562" stop-color="#C855A7"/>
<stop offset="0.480469" stop-color="#C855A8"/>
<stop offset="0.484375" stop-color="#C755A8"/>
<stop offset="0.488281" stop-color="#C755A9"/>
<stop offset="0.492188" stop-color="#C655AA"/>
<stop offset="0.496094" stop-color="#C655AA"/>
<stop offset="0.5" stop-color="#C555AB"/>
<stop offset="0.503906" stop-color="#C555AC"/>
<stop offset="0.507812" stop-color="#C554AC"/>
<stop offset="0.511719" stop-color="#C454AD"/>
<stop offset="0.515625" stop-color="#C454AE"/>
<stop offset="0.519531" stop-color="#C354AE"/>
<stop offset="0.523437" stop-color="#C354AF"/>
<stop offset="0.527344" stop-color="#C254B0"/>
<stop offset="0.53125" stop-color="#C254B0"/>
<stop offset="0.535156" stop-color="#C154B1"/>
<stop offset="0.539062" stop-color="#C154B2"/>
<stop offset="0.542969" stop-color="#C154B2"/>
<stop offset="0.546875" stop-color="#C054B3"/>
<stop offset="0.550781" stop-color="#C054B4"/>
<stop offset="0.554687" stop-color="#BF54B4"/>
<stop offset="0.558594" stop-color="#BF54B5"/>
<stop offset="0.5625" stop-color="#BE54B5"/>
<stop offset="0.566406" stop-color="#BE54B6"/>
<stop offset="0.570312" stop-color="#BD54B7"/>
<stop offset="0.574219" stop-color="#BD54B7"/>
<stop offset="0.578125" stop-color="#BD54B8"/>
<stop offset="0.582031" stop-color="#BC54B9"/>
<stop offset="0.585937" stop-color="#BC54B9"/>
<stop offset="0.589844" stop-color="#BB54BA"/>
<stop offset="0.59375" stop-color="#BB54BB"/>
<stop offset="0.597656" stop-color="#BA54BB"/>
<stop offset="0.601562" stop-color="#BA54BC"/>
<stop offset="0.605469" stop-color="#B954BD"/>
<stop offset="0.609375" stop-color="#B954BD"/>
<stop offset="0.613281" stop-color="#B854BE"/>
<stop offset="0.617187" stop-color="#B854BF"/>
<stop offset="0.621094" stop-color="#B854BF"/>
<stop offset="0.625" stop-color="#B754C0"/>
<stop offset="0.628906" stop-color="#B754C1"/>
<stop offset="0.632812" stop-color="#B654C1"/>
<stop offset="0.636719" stop-color="#B654C2"/>
<stop offset="0.640625" stop-color="#B554C3"/>
<stop offset="0.644531" stop-color="#B554C3"/>
<stop offset="0.648437" stop-color="#B454C4"/>
<stop offset="0.652344" stop-color="#B454C5"/>
<stop offset="0.65625" stop-color="#B454C5"/>
<stop offset="0.660156" stop-color="#B354C6"/>
<stop offset="0.664062" stop-color="#B354C7"/>
<stop offset="0.667969" stop-color="#B254C7"/>
<stop offset="0.671875" stop-color="#B254C8"/>
<stop offset="0.675781" stop-color="#B154C9"/>
<stop offset="0.679687" stop-color="#B154C9"/>
<stop offset="0.683594" stop-color="#B054CA"/>
<stop offset="0.6875" stop-color="#B054CA"/>
<stop offset="0.691406" stop-color="#AF54CB"/>
<stop offset="0.695312" stop-color="#AF54CC"/>
<stop offset="0.699219" stop-color="#AF54CC"/>
<stop offset="0.703125" stop-color="#AE54CD"/>
<stop offset="0.707031" stop-color="#AE54CE"/>
<stop offset="0.710937" stop-color="#AD54CE"/>
<stop offset="0.714844" stop-color="#AD53CF"/>
<stop offset="0.71875" stop-color="#AC53D0"/>
<stop offset="0.722656" stop-color="#AC53D0"/>
<stop offset="0.726562" stop-color="#AB53D1"/>
<stop offset="0.730469" stop-color="#AB53D2"/>
<stop offset="0.734375" stop-color="#AB53D2"/>
<stop offset="0.738281" stop-color="#AA53D3"/>
<stop offset="0.742187" stop-color="#AA53D4"/>
<stop offset="0.746094" stop-color="#A953D4"/>
<stop offset="0.75" stop-color="#A953D5"/>
<stop offset="0.753906" stop-color="#A853D6"/>
<stop offset="0.757812" stop-color="#A853D6"/>
<stop offset="0.761719" stop-color="#A753D7"/>
<stop offset="0.765625" stop-color="#A753D8"/>
<stop offset="0.769531" stop-color="#A653D8"/>
<stop offset="0.773438" stop-color="#A653D9"/>
<stop offset="0.777344" stop-color="#A653DA"/>
<stop offset="0.78125" stop-color="#A553DA"/>
<stop offset="0.785156" stop-color="#A553DB"/>
<stop offset="0.789062" stop-color="#A453DC"/>
<stop offset="0.792969" stop-color="#A453DC"/>
<stop offset="0.796875" stop-color="#A353DD"/>
<stop offset="0.800781" stop-color="#A353DE"/>
<stop offset="0.804688" stop-color="#A253DE"/>
<stop offset="0.808594" stop-color="#A253DF"/>
<stop offset="0.8125" stop-color="#A253DF"/>
<stop offset="0.816406" stop-color="#A153E0"/>
<stop offset="0.820312" stop-color="#A153E1"/>
<stop offset="0.824219" stop-color="#A053E1"/>
<stop offset="0.828125" stop-color="#A053E2"/>
<stop offset="0.832031" stop-color="#9F53E3"/>
<stop offset="0.835938" stop-color="#9F53E3"/>
<stop offset="0.839844" stop-color="#9E53E4"/>
<stop offset="0.84375" stop-color="#9E53E5"/>
<stop offset="0.847656" stop-color="#9E53E5"/>
<stop offset="0.851562" stop-color="#9D53E6"/>
<stop offset="0.855469" stop-color="#9D53E7"/>
<stop offset="0.859375" stop-color="#9C53E7"/>
<stop offset="0.863281" stop-color="#9C53E8"/>
<stop offset="0.867188" stop-color="#9B53E9"/>
<stop offset="0.871094" stop-color="#9B53E9"/>
<stop offset="0.875" stop-color="#9A53EA"/>
<stop offset="0.878906" stop-color="#9A53EB"/>
<stop offset="0.882812" stop-color="#9953EB"/>
<stop offset="0.886719" stop-color="#9953EC"/>
<stop offset="0.890625" stop-color="#9953ED"/>
<stop offset="0.894531" stop-color="#9853ED"/>
<stop offset="0.898438" stop-color="#9853EE"/>
<stop offset="0.902344" stop-color="#9753EF"/>
<stop offset="0.90625" stop-color="#9753EF"/>
<stop offset="0.910156" stop-color="#9653F0"/>
<stop offset="0.914062" stop-color="#9653F1"/>
<stop offset="0.917969" stop-color="#9553F1"/>
<stop offset="0.921875" stop-color="#9552F2"/>
<stop offset="0.925781" stop-color="#9552F3"/>
<stop offset="0.929688" stop-color="#9452F3"/>
<stop offset="0.933594" stop-color="#9452F4"/>
<stop offset="0.9375" stop-color="#9352F4"/>
<stop offset="0.941406" stop-color="#9352F5"/>
<stop offset="0.945312" stop-color="#9252F6"/>
<stop offset="0.949219" stop-color="#9252F6"/>
<stop offset="0.953125" stop-color="#9152F7"/>
<stop offset="0.957031" stop-color="#9152F8"/>
<stop offset="0.960938" stop-color="#9052F8"/>
<stop offset="0.964844" stop-color="#9052F9"/>
<stop offset="0.96875" stop-color="#9052FA"/>
<stop offset="0.972656" stop-color="#8F52FA"/>
<stop offset="0.976562" stop-color="#8F52FB"/>
<stop offset="0.980469" stop-color="#8E52FC"/>
<stop offset="0.984375" stop-color="#8E52FC"/>
<stop offset="0.988281" stop-color="#8D52FD"/>
<stop offset="0.992188" stop-color="#8D52FE"/>
<stop offset="0.996094" stop-color="#8C52FE"/>
<stop offset="1" stop-color="#8C52FF"/>
</linearGradient>
<clipPath id="clip0_557_1671">
<rect width="253" height="48" rx="8" fill="white"/>
</clipPath>
<clipPath id="clip1_557_1671">
<path d="M0 8C0 3.58172 3.58172 0 8 0H245C249.418 0 253 3.58172 253 8V40C253 44.4183 249.418 48 245 48H8C3.58172 48 0 44.4183 0 40V8Z" fill="white"/>
</clipPath>
</defs>
</svg>
