<svg width="69" height="72" viewBox="0 0 69 72" fill="none" xmlns="http://www.w3.org/2000/svg">
<g clip-path="url(#clip0_558_3116)">
<path fill-rule="evenodd" clip-rule="evenodd" d="M35.2448 37.795C34.8335 37.795 34.4198 37.6782 34.0497 37.4355C30.4524 35.0664 25.5352 31.0827 24.3823 23.8682C23.9415 21.062 24.3929 16.6645 27.1097 13.4857C28.9943 11.2852 31.618 10.1219 34.6966 10.1219C39.166 10.1219 42.7796 12.6996 44.3614 17.0169C46.3239 22.3715 44.7115 28.8293 40.5262 32.3722C39.6091 33.1488 38.2372 33.0357 37.4594 32.1164C36.6839 31.2005 36.7971 29.8274 37.7152 29.0496C40.5085 26.6841 41.6105 22.1534 40.2752 18.5138C39.7224 17.0052 38.2633 14.4723 34.6967 14.4723C32.8782 14.4723 31.479 15.0758 30.4183 16.3145C28.7824 18.2261 28.3723 21.2175 28.681 23.1882C29.3505 27.3818 31.8174 30.7551 36.4435 33.8007C37.4477 34.4618 37.7247 35.8114 37.0635 36.8155C36.6474 37.4509 35.9532 37.795 35.2448 37.795ZM20.1132 57.5276H51.1879C52.3901 57.5276 53.3637 58.5012 53.3639 59.7037C53.3639 60.9058 52.3903 61.8783 51.1893 61.8783H17.9307C16.7285 61.8783 15.7549 60.9047 15.7549 59.7025C15.7549 50.779 16.152 45.0579 16.937 42.7007C18.5824 37.7739 25.5552 34.7061 26.3436 34.3724C26.8811 34.1437 27.4893 34.1425 28.0291 34.3677C28.5677 34.5928 28.9932 35.0253 29.2112 35.5686C30.2509 38.164 32.33 39.7764 34.64 39.7764H34.6412C36.9396 39.7764 38.9409 38.2029 39.9946 35.5686C40.2114 35.0265 40.6368 34.594 41.1767 34.3677C41.7166 34.1415 42.3247 34.1437 42.8622 34.3724C43.6518 34.7061 50.6234 37.7751 52.2664 42.6995C53.2682 45.7015 53.2176 49.3457 53.1763 52.2747L53.1752 52.3503L53.1752 52.3513C53.1686 52.8372 53.1622 53.3002 53.1622 53.7314C53.1622 54.9336 52.1886 55.9072 50.9864 55.9072C49.7842 55.9072 48.8106 54.9336 48.8106 53.7314C48.8106 53.2898 48.8169 52.8163 48.8235 52.3205V52.3203V52.3201V52.3198L48.8235 52.3186L48.8248 52.2157C48.8602 49.6156 48.9038 46.3791 48.1377 44.0772C47.5448 42.3011 45.1074 40.4718 42.9705 39.2766C41.0493 42.3163 38.0096 44.1278 34.6411 44.129H34.6399C31.2324 44.129 28.1668 42.3163 26.2362 39.2754C24.0993 40.4704 21.6585 42.2997 21.0644 44.0783C20.7945 44.8868 20.1923 47.7815 20.1132 57.5276ZM14.0248 36.7932C11.0064 36.7932 8.55129 33.6345 8.55129 29.7532C8.55129 25.8755 11.0064 22.7204 14.0248 22.7204C15.57 22.7204 17.1011 23.6138 18.0204 25.0505C18.6933 26.103 19.6045 28.3412 18.1429 31.5083C17.6396 32.5997 18.1158 33.8915 19.2073 34.3959C20.2999 34.8981 21.5905 34.423 22.0937 33.3316C23.7956 29.6436 23.646 25.7719 21.6836 22.7051C19.9463 19.9908 17.0834 18.3701 14.0236 18.3701C8.60667 18.3701 4.19971 23.4759 4.19971 29.7533C4.19971 36.0342 8.60667 41.1436 14.0236 41.1436C15.2258 41.1436 16.2006 40.1712 16.2006 38.969C16.2005 37.7667 15.227 36.7932 14.0248 36.7932ZM4.9338 55.4569H11.2748C12.477 55.4569 13.4506 56.4304 13.4505 57.6326C13.4505 58.8347 12.4769 59.806 11.2747 59.806H2.6778C2.09198 59.806 1.5298 59.5702 1.12076 59.1507C0.711841 58.731 0.488989 58.1654 0.502005 57.5784L0.502244 57.5691C0.512246 57.182 0.678774 50.7372 1.3047 47.4127C2.06728 43.3228 4.49527 41.0693 5.87421 40.091C6.85487 39.3933 8.2115 39.6242 8.90688 40.6061C9.60346 41.5855 9.3737 42.9433 8.39185 43.6387C7.36299 44.3696 6.04049 45.7567 5.58084 48.2154C5.22611 50.0989 5.03049 53.3024 4.9338 55.4569ZM64.806 29.7508C64.806 23.4734 60.3991 18.3676 54.9821 18.3676C51.9211 18.3676 49.0571 19.987 47.3187 22.7013C45.3563 25.7669 45.2055 29.6399 46.905 33.3278C47.4083 34.418 48.7012 34.8966 49.7914 34.3933C50.8817 33.8901 51.3602 32.5983 50.857 31.5069C49.3954 28.3388 50.3089 26.1018 50.9819 25.0491C51.9024 23.6124 53.4334 22.719 54.981 22.719C57.9995 22.719 60.4546 25.8743 60.4546 29.7518C60.4546 33.633 57.9995 36.7919 54.981 36.7919C53.7789 36.7919 52.8052 37.7655 52.8052 38.9676C52.8052 40.1698 53.7789 41.1434 54.981 41.1434C60.3967 41.1434 64.8048 36.0341 64.806 29.7508ZM63.3517 40.2547C64.66 41.2307 66.9654 43.4607 67.6985 47.4173C68.3304 50.76 68.4936 57.279 68.501 57.5756L68.5011 57.5771C68.5153 58.1629 68.2914 58.7298 67.8835 59.1494C67.4722 59.5701 66.9112 59.8059 66.3254 59.8059H57.7261C56.5239 59.8059 55.5503 58.8322 55.5503 57.6301C55.5503 56.4279 56.5239 55.4543 57.7261 55.4543H64.0683C63.9716 53.3009 63.776 50.0985 63.4213 48.2174C62.9805 45.8355 61.7252 44.4707 60.7481 43.7422C59.7863 43.0245 59.5883 41.6597 60.3061 40.6967C61.025 39.7337 62.3887 39.538 63.3517 40.2547Z" fill="url(#paint0_linear_558_3116)"/>
</g>
<defs>
<linearGradient id="paint0_linear_558_3116" x1="6.16815" y1="36.0001" x2="62.835" y2="36.0001" gradientUnits="userSpaceOnUse">
<stop stop-color="#FF5757"/>
<stop offset="0.00390625" stop-color="#FF5758"/>
<stop offset="0.0078125" stop-color="#FE5758"/>
<stop offset="0.0117187" stop-color="#FE5759"/>
<stop offset="0.015625" stop-color="#FD575A"/>
<stop offset="0.0195312" stop-color="#FD575A"/>
<stop offset="0.0234375" stop-color="#FC575B"/>
<stop offset="0.0273438" stop-color="#FC575C"/>
<stop offset="0.03125" stop-color="#FB575C"/>
<stop offset="0.0351562" stop-color="#FB575D"/>
<stop offset="0.0390625" stop-color="#FB575E"/>
<stop offset="0.0429687" stop-color="#FA575E"/>
<stop offset="0.046875" stop-color="#FA575F"/>
<stop offset="0.0507812" stop-color="#F9575F"/>
<stop offset="0.0546875" stop-color="#F95760"/>
<stop offset="0.0585938" stop-color="#F85761"/>
<stop offset="0.0625" stop-color="#F85761"/>
<stop offset="0.0664062" stop-color="#F75762"/>
<stop offset="0.0703125" stop-color="#F75763"/>
<stop offset="0.0742187" stop-color="#F65763"/>
<stop offset="0.078125" stop-color="#F65764"/>
<stop offset="0.0820312" stop-color="#F65765"/>
<stop offset="0.0859375" stop-color="#F55765"/>
<stop offset="0.0898437" stop-color="#F55766"/>
<stop offset="0.09375" stop-color="#F45767"/>
<stop offset="0.0976562" stop-color="#F45667"/>
<stop offset="0.101562" stop-color="#F35668"/>
<stop offset="0.105469" stop-color="#F35669"/>
<stop offset="0.109375" stop-color="#F25669"/>
<stop offset="0.113281" stop-color="#F2566A"/>
<stop offset="0.117188" stop-color="#F2566B"/>
<stop offset="0.121094" stop-color="#F1566B"/>
<stop offset="0.125" stop-color="#F1566C"/>
<stop offset="0.128906" stop-color="#F0566D"/>
<stop offset="0.132812" stop-color="#F0566D"/>
<stop offset="0.136719" stop-color="#EF566E"/>
<stop offset="0.140625" stop-color="#EF566F"/>
<stop offset="0.144531" stop-color="#EE566F"/>
<stop offset="0.148437" stop-color="#EE5670"/>
<stop offset="0.152344" stop-color="#ED5671"/>
<stop offset="0.15625" stop-color="#ED5671"/>
<stop offset="0.160156" stop-color="#ED5672"/>
<stop offset="0.164062" stop-color="#EC5673"/>
<stop offset="0.167969" stop-color="#EC5673"/>
<stop offset="0.171875" stop-color="#EB5674"/>
<stop offset="0.175781" stop-color="#EB5674"/>
<stop offset="0.179687" stop-color="#EA5675"/>
<stop offset="0.183594" stop-color="#EA5676"/>
<stop offset="0.1875" stop-color="#E95676"/>
<stop offset="0.191406" stop-color="#E95677"/>
<stop offset="0.195312" stop-color="#E95678"/>
<stop offset="0.199219" stop-color="#E85678"/>
<stop offset="0.203125" stop-color="#E85679"/>
<stop offset="0.207031" stop-color="#E7567A"/>
<stop offset="0.210938" stop-color="#E7567A"/>
<stop offset="0.214844" stop-color="#E6567B"/>
<stop offset="0.21875" stop-color="#E6567C"/>
<stop offset="0.222656" stop-color="#E5567C"/>
<stop offset="0.226562" stop-color="#E5567D"/>
<stop offset="0.230469" stop-color="#E4567E"/>
<stop offset="0.234375" stop-color="#E4567E"/>
<stop offset="0.238281" stop-color="#E4567F"/>
<stop offset="0.242188" stop-color="#E35680"/>
<stop offset="0.246094" stop-color="#E35680"/>
<stop offset="0.25" stop-color="#E25681"/>
<stop offset="0.253906" stop-color="#E25682"/>
<stop offset="0.257812" stop-color="#E15682"/>
<stop offset="0.261719" stop-color="#E15683"/>
<stop offset="0.265625" stop-color="#E05684"/>
<stop offset="0.269531" stop-color="#E05684"/>
<stop offset="0.273437" stop-color="#E05685"/>
<stop offset="0.277344" stop-color="#DF5686"/>
<stop offset="0.28125" stop-color="#DF5686"/>
<stop offset="0.285156" stop-color="#DE5687"/>
<stop offset="0.289062" stop-color="#DE5688"/>
<stop offset="0.292969" stop-color="#DD5688"/>
<stop offset="0.296875" stop-color="#DD5689"/>
<stop offset="0.300781" stop-color="#DC5589"/>
<stop offset="0.304687" stop-color="#DC558A"/>
<stop offset="0.308594" stop-color="#DC558B"/>
<stop offset="0.3125" stop-color="#DB558B"/>
<stop offset="0.316406" stop-color="#DB558C"/>
<stop offset="0.320312" stop-color="#DA558D"/>
<stop offset="0.324219" stop-color="#DA558D"/>
<stop offset="0.328125" stop-color="#D9558E"/>
<stop offset="0.332031" stop-color="#D9558F"/>
<stop offset="0.335937" stop-color="#D8558F"/>
<stop offset="0.339844" stop-color="#D85590"/>
<stop offset="0.34375" stop-color="#D75591"/>
<stop offset="0.347656" stop-color="#D75591"/>
<stop offset="0.351562" stop-color="#D75592"/>
<stop offset="0.355469" stop-color="#D65593"/>
<stop offset="0.359375" stop-color="#D65593"/>
<stop offset="0.363281" stop-color="#D55594"/>
<stop offset="0.367187" stop-color="#D55595"/>
<stop offset="0.371094" stop-color="#D45595"/>
<stop offset="0.375" stop-color="#D45596"/>
<stop offset="0.378906" stop-color="#D35597"/>
<stop offset="0.382812" stop-color="#D35597"/>
<stop offset="0.386719" stop-color="#D35598"/>
<stop offset="0.390625" stop-color="#D25599"/>
<stop offset="0.394531" stop-color="#D25599"/>
<stop offset="0.398438" stop-color="#D1559A"/>
<stop offset="0.402344" stop-color="#D1559B"/>
<stop offset="0.40625" stop-color="#D0559B"/>
<stop offset="0.410156" stop-color="#D0559C"/>
<stop offset="0.414062" stop-color="#CF559D"/>
<stop offset="0.417969" stop-color="#CF559D"/>
<stop offset="0.421875" stop-color="#CE559E"/>
<stop offset="0.425781" stop-color="#CE559F"/>
<stop offset="0.429688" stop-color="#CE559F"/>
<stop offset="0.433594" stop-color="#CD55A0"/>
<stop offset="0.4375" stop-color="#CD55A0"/>
<stop offset="0.441406" stop-color="#CC55A1"/>
<stop offset="0.445312" stop-color="#CC55A2"/>
<stop offset="0.449219" stop-color="#CB55A2"/>
<stop offset="0.453125" stop-color="#CB55A3"/>
<stop offset="0.457031" stop-color="#CA55A4"/>
<stop offset="0.460938" stop-color="#CA55A4"/>
<stop offset="0.464844" stop-color="#CA55A5"/>
<stop offset="0.46875" stop-color="#C955A6"/>
<stop offset="0.472656" stop-color="#C955A6"/>
<stop offset="0.476562" stop-color="#C855A7"/>
<stop offset="0.480469" stop-color="#C855A8"/>
<stop offset="0.484375" stop-color="#C755A8"/>
<stop offset="0.488281" stop-color="#C755A9"/>
<stop offset="0.492188" stop-color="#C655AA"/>
<stop offset="0.496094" stop-color="#C655AA"/>
<stop offset="0.5" stop-color="#C555AB"/>
<stop offset="0.503906" stop-color="#C555AC"/>
<stop offset="0.507812" stop-color="#C554AC"/>
<stop offset="0.511719" stop-color="#C454AD"/>
<stop offset="0.515625" stop-color="#C454AE"/>
<stop offset="0.519531" stop-color="#C354AE"/>
<stop offset="0.523437" stop-color="#C354AF"/>
<stop offset="0.527344" stop-color="#C254B0"/>
<stop offset="0.53125" stop-color="#C254B0"/>
<stop offset="0.535156" stop-color="#C154B1"/>
<stop offset="0.539062" stop-color="#C154B2"/>
<stop offset="0.542969" stop-color="#C154B2"/>
<stop offset="0.546875" stop-color="#C054B3"/>
<stop offset="0.550781" stop-color="#C054B4"/>
<stop offset="0.554687" stop-color="#BF54B4"/>
<stop offset="0.558594" stop-color="#BF54B5"/>
<stop offset="0.5625" stop-color="#BE54B5"/>
<stop offset="0.566406" stop-color="#BE54B6"/>
<stop offset="0.570312" stop-color="#BD54B7"/>
<stop offset="0.574219" stop-color="#BD54B7"/>
<stop offset="0.578125" stop-color="#BD54B8"/>
<stop offset="0.582031" stop-color="#BC54B9"/>
<stop offset="0.585937" stop-color="#BC54B9"/>
<stop offset="0.589844" stop-color="#BB54BA"/>
<stop offset="0.59375" stop-color="#BB54BB"/>
<stop offset="0.597656" stop-color="#BA54BB"/>
<stop offset="0.601562" stop-color="#BA54BC"/>
<stop offset="0.605469" stop-color="#B954BD"/>
<stop offset="0.609375" stop-color="#B954BD"/>
<stop offset="0.613281" stop-color="#B854BE"/>
<stop offset="0.617187" stop-color="#B854BF"/>
<stop offset="0.621094" stop-color="#B854BF"/>
<stop offset="0.625" stop-color="#B754C0"/>
<stop offset="0.628906" stop-color="#B754C1"/>
<stop offset="0.632812" stop-color="#B654C1"/>
<stop offset="0.636719" stop-color="#B654C2"/>
<stop offset="0.640625" stop-color="#B554C3"/>
<stop offset="0.644531" stop-color="#B554C3"/>
<stop offset="0.648437" stop-color="#B454C4"/>
<stop offset="0.652344" stop-color="#B454C5"/>
<stop offset="0.65625" stop-color="#B454C5"/>
<stop offset="0.660156" stop-color="#B354C6"/>
<stop offset="0.664062" stop-color="#B354C7"/>
<stop offset="0.667969" stop-color="#B254C7"/>
<stop offset="0.671875" stop-color="#B254C8"/>
<stop offset="0.675781" stop-color="#B154C9"/>
<stop offset="0.679687" stop-color="#B154C9"/>
<stop offset="0.683594" stop-color="#B054CA"/>
<stop offset="0.6875" stop-color="#B054CA"/>
<stop offset="0.691406" stop-color="#AF54CB"/>
<stop offset="0.695312" stop-color="#AF54CC"/>
<stop offset="0.699219" stop-color="#AF54CC"/>
<stop offset="0.703125" stop-color="#AE54CD"/>
<stop offset="0.707031" stop-color="#AE54CE"/>
<stop offset="0.710937" stop-color="#AD54CE"/>
<stop offset="0.714844" stop-color="#AD53CF"/>
<stop offset="0.71875" stop-color="#AC53D0"/>
<stop offset="0.722656" stop-color="#AC53D0"/>
<stop offset="0.726562" stop-color="#AB53D1"/>
<stop offset="0.730469" stop-color="#AB53D2"/>
<stop offset="0.734375" stop-color="#AB53D2"/>
<stop offset="0.738281" stop-color="#AA53D3"/>
<stop offset="0.742187" stop-color="#AA53D4"/>
<stop offset="0.746094" stop-color="#A953D4"/>
<stop offset="0.75" stop-color="#A953D5"/>
<stop offset="0.753906" stop-color="#A853D6"/>
<stop offset="0.757812" stop-color="#A853D6"/>
<stop offset="0.761719" stop-color="#A753D7"/>
<stop offset="0.765625" stop-color="#A753D8"/>
<stop offset="0.769531" stop-color="#A653D8"/>
<stop offset="0.773438" stop-color="#A653D9"/>
<stop offset="0.777344" stop-color="#A653DA"/>
<stop offset="0.78125" stop-color="#A553DA"/>
<stop offset="0.785156" stop-color="#A553DB"/>
<stop offset="0.789062" stop-color="#A453DC"/>
<stop offset="0.792969" stop-color="#A453DC"/>
<stop offset="0.796875" stop-color="#A353DD"/>
<stop offset="0.800781" stop-color="#A353DE"/>
<stop offset="0.804688" stop-color="#A253DE"/>
<stop offset="0.808594" stop-color="#A253DF"/>
<stop offset="0.8125" stop-color="#A253DF"/>
<stop offset="0.816406" stop-color="#A153E0"/>
<stop offset="0.820312" stop-color="#A153E1"/>
<stop offset="0.824219" stop-color="#A053E1"/>
<stop offset="0.828125" stop-color="#A053E2"/>
<stop offset="0.832031" stop-color="#9F53E3"/>
<stop offset="0.835938" stop-color="#9F53E3"/>
<stop offset="0.839844" stop-color="#9E53E4"/>
<stop offset="0.84375" stop-color="#9E53E5"/>
<stop offset="0.847656" stop-color="#9E53E5"/>
<stop offset="0.851562" stop-color="#9D53E6"/>
<stop offset="0.855469" stop-color="#9D53E7"/>
<stop offset="0.859375" stop-color="#9C53E7"/>
<stop offset="0.863281" stop-color="#9C53E8"/>
<stop offset="0.867188" stop-color="#9B53E9"/>
<stop offset="0.871094" stop-color="#9B53E9"/>
<stop offset="0.875" stop-color="#9A53EA"/>
<stop offset="0.878906" stop-color="#9A53EB"/>
<stop offset="0.882812" stop-color="#9953EB"/>
<stop offset="0.886719" stop-color="#9953EC"/>
<stop offset="0.890625" stop-color="#9953ED"/>
<stop offset="0.894531" stop-color="#9853ED"/>
<stop offset="0.898438" stop-color="#9853EE"/>
<stop offset="0.902344" stop-color="#9753EF"/>
<stop offset="0.90625" stop-color="#9753EF"/>
<stop offset="0.910156" stop-color="#9653F0"/>
<stop offset="0.914062" stop-color="#9653F1"/>
<stop offset="0.917969" stop-color="#9553F1"/>
<stop offset="0.921875" stop-color="#9552F2"/>
<stop offset="0.925781" stop-color="#9552F3"/>
<stop offset="0.929688" stop-color="#9452F3"/>
<stop offset="0.933594" stop-color="#9452F4"/>
<stop offset="0.9375" stop-color="#9352F4"/>
<stop offset="0.941406" stop-color="#9352F5"/>
<stop offset="0.945312" stop-color="#9252F6"/>
<stop offset="0.949219" stop-color="#9252F6"/>
<stop offset="0.953125" stop-color="#9152F7"/>
<stop offset="0.957031" stop-color="#9152F8"/>
<stop offset="0.960938" stop-color="#9052F8"/>
<stop offset="0.964844" stop-color="#9052F9"/>
<stop offset="0.96875" stop-color="#9052FA"/>
<stop offset="0.972656" stop-color="#8F52FA"/>
<stop offset="0.976562" stop-color="#8F52FB"/>
<stop offset="0.980469" stop-color="#8E52FC"/>
<stop offset="0.984375" stop-color="#8E52FC"/>
<stop offset="0.988281" stop-color="#8D52FD"/>
<stop offset="0.992188" stop-color="#8D52FE"/>
<stop offset="0.996094" stop-color="#8C52FE"/>
<stop offset="1" stop-color="#8C52FF"/>
</linearGradient>
<clipPath id="clip0_558_3116">
<rect width="68" height="68" fill="white" transform="translate(0.501465 2)"/>
</clipPath>
</defs>
</svg>
