<svg width="834" height="574" viewBox="0 0 834 574" fill="none" xmlns="http://www.w3.org/2000/svg">
<g clip-path="url(#clip0_70_168)">
<rect width="834" height="574" rx="10" fill="url(#paint0_linear_70_168)"/>
<path d="M425.823 58.4041V433H345.552V58.4041H425.823ZM567.099 409.989L579.942 433H424.218V409.989H567.099ZM547.299 237.14V259.616H424.218V237.14H547.299ZM573.521 58.4041V81.4151H424.218V58.4041H573.521ZM606.164 323.297L581.548 433H476.661L495.926 409.989C513.764 409.989 529.461 406.6 543.018 399.822C556.575 392.686 568.169 382.697 577.802 369.854C587.434 356.654 595.105 341.135 600.813 323.297H606.164ZM547.299 258.545V309.919H541.948V305.637C541.948 292.437 537.667 281.556 529.104 272.994C520.542 264.432 509.661 259.972 496.461 259.616V258.545H547.299ZM547.299 186.837V238.21H496.461V237.14C509.661 236.783 520.542 232.324 529.104 223.761C537.667 214.843 541.948 203.783 541.948 190.583V186.837H547.299ZM573.521 79.8096V142.421H568.169V135.999C568.169 119.588 563.175 106.388 553.186 96.3989C543.553 86.4097 530.353 81.2367 513.585 80.8799V79.8096H573.521ZM573.521 48.7717V64.2907L508.234 58.4041C516.083 58.4041 524.288 57.869 532.85 56.7988C541.769 55.7285 549.975 54.4798 557.467 53.0528C564.959 51.6257 570.31 50.1987 573.521 48.7717ZM347.158 393.935V433H304.347V427.649C304.347 427.649 305.417 427.649 307.558 427.649C310.055 427.649 311.304 427.649 311.304 427.649C320.579 427.649 328.428 424.438 334.85 418.016C341.628 411.238 345.196 403.211 345.552 393.935H347.158ZM347.158 97.4691H345.552C345.196 88.1934 341.628 80.3448 334.85 73.9231C328.428 67.1447 320.579 63.7555 311.304 63.7555C311.304 63.7555 310.055 63.7555 307.558 63.7555C305.417 63.7555 304.347 63.7555 304.347 63.7555V58.4041H347.158V97.4691Z" fill="black"/>
<path d="M322.098 145.325V519.921H287.314V145.325H322.098ZM466.585 503.332V519.921H320.492V503.332H466.585ZM443.574 327.272V343.326H320.492V327.272H443.574ZM466.585 145.325V161.915H320.492V145.325H466.585ZM499.228 433.229L468.19 519.921H379.357L398.622 503.332C417.53 503.332 432.871 500.478 444.644 494.77C456.774 488.705 466.585 480.321 474.077 469.618C481.568 458.916 488.168 446.786 493.877 433.229H499.228ZM443.574 342.256V377.575H438.222V369.548C438.222 362.413 435.725 356.348 430.73 351.353C425.736 346.002 419.671 343.326 412.536 343.326V342.256H443.574ZM443.574 293.023V328.342H412.536V327.272C419.671 326.915 425.736 324.24 430.73 319.245C435.725 313.894 438.222 307.65 438.222 300.515V293.023H443.574ZM466.585 160.309V203.12H461.233V193.488C461.233 184.926 458.201 177.612 452.136 171.547C446.071 165.125 438.579 161.736 429.66 161.38V160.309H466.585ZM466.585 135.693V151.212L401.298 145.325C409.147 145.325 417.352 144.79 425.914 143.72C434.833 142.65 443.039 141.401 450.531 139.974C458.022 138.547 463.374 137.12 466.585 135.693ZM288.919 480.856V519.921H246.108V514.57C246.108 514.57 247.178 514.57 249.319 514.57C251.816 514.57 253.065 514.57 253.065 514.57C262.341 514.57 270.189 511.359 276.611 504.937C283.389 498.159 286.957 490.132 287.314 480.856H288.919ZM288.919 184.39H287.314C287.314 175.115 283.925 167.266 277.146 160.844C270.368 154.066 262.341 150.677 253.065 150.677C253.065 150.677 251.995 150.677 249.854 150.677C247.714 150.677 246.643 150.677 246.643 150.677L246.108 145.325H288.919V184.39Z" fill="white"/>
</g>
<defs>
<linearGradient id="paint0_linear_70_168" x1="5.83829e-05" y1="294.168" x2="834.058" y2="285.242" gradientUnits="userSpaceOnUse">
<stop stop-color="#FF5757"/>
<stop offset="1" stop-color="#8C52FF"/>
</linearGradient>
<clipPath id="clip0_70_168">
<rect width="834" height="574" rx="10" fill="white"/>
</clipPath>
</defs>
</svg>
