<svg width="145" height="40" viewBox="0 0 145 40" fill="none" xmlns="http://www.w3.org/2000/svg">
<g clip-path="url(#clip0_557_1980)">
<g clip-path="url(#clip1_557_1980)">
<path d="M0 8C0 3.58172 3.58172 0 8 0H137C141.418 0 145 3.58172 145 8V32C145 36.4183 141.418 40 137 40H8C3.58173 40 0 36.4183 0 32V8Z" fill="url(#paint0_linear_557_1980)"/>
<path d="M29.6705 14.3636H32.1023V22.4773C32.1023 23.2273 31.9337 23.8788 31.5966 24.4318C31.2633 24.9848 30.7992 25.411 30.2045 25.7102C29.6098 26.0095 28.9186 26.1591 28.1307 26.1591C27.4299 26.1591 26.7936 26.036 26.2216 25.7898C25.6534 25.5398 25.2027 25.161 24.8693 24.6534C24.536 24.142 24.3712 23.5 24.375 22.7273H26.8239C26.8314 23.0341 26.8939 23.2973 27.0114 23.517C27.1326 23.733 27.2973 23.8996 27.5057 24.017C27.7178 24.1307 27.9678 24.1875 28.2557 24.1875C28.5587 24.1875 28.8144 24.1231 29.0227 23.9943C29.2348 23.8617 29.3958 23.6686 29.5057 23.4148C29.6155 23.161 29.6705 22.8485 29.6705 22.4773V14.3636ZM38.0341 26.1705C37.1515 26.1705 36.3883 25.983 35.7443 25.608C35.1042 25.2292 34.6098 24.7027 34.2614 24.0284C33.9129 23.3504 33.7386 22.5644 33.7386 21.6705C33.7386 20.7689 33.9129 19.9811 34.2614 19.3068C34.6098 18.6288 35.1042 18.1023 35.7443 17.7273C36.3883 17.3485 37.1515 17.1591 38.0341 17.1591C38.9167 17.1591 39.678 17.3485 40.3182 17.7273C40.9621 18.1023 41.4583 18.6288 41.8068 19.3068C42.1553 19.9811 42.3295 20.7689 42.3295 21.6705C42.3295 22.5644 42.1553 23.3504 41.8068 24.0284C41.4583 24.7027 40.9621 25.2292 40.3182 25.608C39.678 25.983 38.9167 26.1705 38.0341 26.1705ZM38.0455 24.2955C38.447 24.2955 38.7822 24.1818 39.0511 23.9545C39.3201 23.7235 39.5227 23.4091 39.6591 23.0114C39.7992 22.6136 39.8693 22.161 39.8693 21.6534C39.8693 21.1458 39.7992 20.6932 39.6591 20.2955C39.5227 19.8977 39.3201 19.5833 39.0511 19.3523C38.7822 19.1212 38.447 19.0057 38.0455 19.0057C37.6402 19.0057 37.2992 19.1212 37.0227 19.3523C36.75 19.5833 36.5436 19.8977 36.4034 20.2955C36.267 20.6932 36.1989 21.1458 36.1989 21.6534C36.1989 22.161 36.267 22.6136 36.4034 23.0114C36.5436 23.4091 36.75 23.7235 37.0227 23.9545C37.2992 24.1818 37.6402 24.2955 38.0455 24.2955ZM43.9034 26V17.2727H46.3239V26H43.9034ZM45.1193 16.1477C44.7595 16.1477 44.4508 16.0284 44.1932 15.7898C43.9394 15.5473 43.8125 15.2576 43.8125 14.9205C43.8125 14.5871 43.9394 14.3011 44.1932 14.0625C44.4508 13.8201 44.7595 13.6989 45.1193 13.6989C45.4792 13.6989 45.786 13.8201 46.0398 14.0625C46.2973 14.3011 46.4261 14.5871 46.4261 14.9205C46.4261 15.2576 46.2973 15.5473 46.0398 15.7898C45.786 16.0284 45.4792 16.1477 45.1193 16.1477ZM50.6832 20.9545V26H48.2628V17.2727H50.5696V18.8125H50.6719C50.8651 18.3049 51.1889 17.9034 51.6435 17.608C52.098 17.3087 52.6491 17.1591 53.2969 17.1591C53.9029 17.1591 54.4313 17.2917 54.8821 17.5568C55.3329 17.822 55.6832 18.2008 55.9332 18.6932C56.1832 19.1818 56.3082 19.7652 56.3082 20.4432V26H53.8878V20.875C53.8916 20.3409 53.7552 19.9242 53.4787 19.625C53.2022 19.322 52.8215 19.1705 52.3366 19.1705C52.0109 19.1705 51.723 19.2405 51.473 19.3807C51.2268 19.5208 51.0336 19.7254 50.8935 19.9943C50.7571 20.2595 50.687 20.5795 50.6832 20.9545ZM64.5838 26L61.2543 14.3636H63.9418L65.8679 22.4489H65.9645L68.0895 14.3636H70.3906L72.5099 22.4659H72.6122L74.5384 14.3636H77.2259L73.8963 26H71.4986L69.2827 18.392H69.1918L66.9815 26H64.5838ZM80.0483 26.1648C79.4915 26.1648 78.9953 26.0682 78.5597 25.875C78.1241 25.678 77.7794 25.3883 77.5256 25.0057C77.2756 24.6193 77.1506 24.1383 77.1506 23.5625C77.1506 23.0777 77.2396 22.6705 77.4176 22.3409C77.5956 22.0114 77.8381 21.7462 78.1449 21.5455C78.4517 21.3447 78.8002 21.1932 79.1903 21.0909C79.5843 20.9886 79.9972 20.9167 80.429 20.875C80.9366 20.822 81.3456 20.7727 81.6562 20.7273C81.9669 20.678 82.1922 20.6061 82.3324 20.5114C82.4725 20.4167 82.5426 20.2765 82.5426 20.0909V20.0568C82.5426 19.697 82.429 19.4186 82.2017 19.2216C81.9782 19.0246 81.66 18.9261 81.2472 18.9261C80.8116 18.9261 80.465 19.0227 80.2074 19.2159C79.9498 19.4053 79.7794 19.6439 79.696 19.9318L77.4574 19.75C77.571 19.2197 77.7945 18.7614 78.1278 18.375C78.4612 17.9848 78.8911 17.6856 79.4176 17.4773C79.9479 17.2652 80.5616 17.1591 81.2585 17.1591C81.7434 17.1591 82.2074 17.2159 82.6506 17.3295C83.0975 17.4432 83.4934 17.6193 83.8381 17.858C84.1866 18.0966 84.4612 18.4034 84.6619 18.7784C84.8627 19.1496 84.9631 19.5947 84.9631 20.1136V26H82.6676V24.7898H82.5994C82.4593 25.0625 82.2718 25.303 82.0369 25.5114C81.8021 25.7159 81.5199 25.8769 81.1903 25.9943C80.8608 26.108 80.4801 26.1648 80.0483 26.1648ZM80.7415 24.4943C81.0975 24.4943 81.4119 24.4242 81.6847 24.2841C81.9574 24.1402 82.1714 23.947 82.3267 23.7045C82.482 23.4621 82.5597 23.1875 82.5597 22.8807V21.9545C82.4839 22.0038 82.3797 22.0492 82.2472 22.0909C82.1184 22.1288 81.9725 22.1648 81.8097 22.1989C81.6468 22.2292 81.4839 22.2576 81.321 22.2841C81.1581 22.3068 81.0104 22.3277 80.8778 22.3466C80.5938 22.3883 80.3456 22.4545 80.1335 22.5455C79.9214 22.6364 79.7566 22.7595 79.6392 22.9148C79.5218 23.0663 79.4631 23.2557 79.4631 23.483C79.4631 23.8125 79.5824 24.0644 79.821 24.2386C80.0634 24.4091 80.3703 24.4943 80.7415 24.4943ZM86.8409 26V17.2727H89.2614V26H86.8409ZM88.0568 16.1477C87.697 16.1477 87.3883 16.0284 87.1307 15.7898C86.8769 15.5473 86.75 15.2576 86.75 14.9205C86.75 14.5871 86.8769 14.3011 87.1307 14.0625C87.3883 13.8201 87.697 13.6989 88.0568 13.6989C88.4167 13.6989 88.7235 13.8201 88.9773 14.0625C89.2348 14.3011 89.3636 14.5871 89.3636 14.9205C89.3636 15.2576 89.2348 15.5473 88.9773 15.7898C88.7235 16.0284 88.4167 16.1477 88.0568 16.1477ZM95.8423 17.2727V19.0909H90.5866V17.2727H95.8423ZM91.7798 15.1818H94.2003V23.3182C94.2003 23.5417 94.2344 23.7159 94.3026 23.8409C94.3707 23.9621 94.4654 24.0473 94.5866 24.0966C94.7116 24.1458 94.8556 24.1705 95.0185 24.1705C95.1321 24.1705 95.2457 24.161 95.3594 24.142C95.473 24.1193 95.5601 24.1023 95.6207 24.0909L96.0014 25.892C95.8802 25.9299 95.7098 25.9735 95.4901 26.0227C95.2704 26.0758 95.0033 26.108 94.6889 26.1193C94.1056 26.142 93.5942 26.0644 93.1548 25.8864C92.7192 25.7083 92.3802 25.4318 92.1378 25.0568C91.8954 24.6818 91.776 24.2083 91.7798 23.6364V15.1818ZM100.027 14.3636V26H97.6065V14.3636H100.027ZM101.966 26V17.2727H104.386V26H101.966ZM103.182 16.1477C102.822 16.1477 102.513 16.0284 102.256 15.7898C102.002 15.5473 101.875 15.2576 101.875 14.9205C101.875 14.5871 102.002 14.3011 102.256 14.0625C102.513 13.8201 102.822 13.6989 103.182 13.6989C103.542 13.6989 103.848 13.8201 104.102 14.0625C104.36 14.3011 104.489 14.5871 104.489 14.9205C104.489 15.2576 104.36 15.5473 104.102 15.7898C103.848 16.0284 103.542 16.1477 103.182 16.1477ZM113.587 19.7614L111.371 19.8977C111.333 19.7083 111.251 19.5379 111.126 19.3864C111.001 19.2311 110.837 19.108 110.632 19.017C110.431 18.9223 110.191 18.875 109.911 18.875C109.536 18.875 109.219 18.9545 108.962 19.1136C108.704 19.2689 108.575 19.4773 108.575 19.7386C108.575 19.947 108.659 20.1231 108.825 20.267C108.992 20.411 109.278 20.5265 109.683 20.6136L111.263 20.9318C112.111 21.1061 112.744 21.3864 113.161 21.7727C113.577 22.1591 113.786 22.6667 113.786 23.2955C113.786 23.8674 113.617 24.3693 113.28 24.8011C112.946 25.233 112.488 25.5701 111.905 25.8125C111.325 26.0511 110.657 26.1705 109.899 26.1705C108.744 26.1705 107.823 25.9299 107.138 25.4489C106.456 24.964 106.056 24.3049 105.939 23.4716L108.32 23.3466C108.392 23.6989 108.566 23.9678 108.842 24.1534C109.119 24.3352 109.473 24.4261 109.905 24.4261C110.329 24.4261 110.67 24.3447 110.928 24.1818C111.189 24.0152 111.321 23.8011 111.325 23.5398C111.321 23.3201 111.229 23.1402 111.047 23C110.865 22.8561 110.585 22.7462 110.206 22.6705L108.695 22.3693C107.842 22.1989 107.208 21.9034 106.791 21.483C106.378 21.0625 106.172 20.5265 106.172 19.875C106.172 19.3144 106.323 18.8314 106.626 18.4261C106.933 18.0208 107.363 17.7083 107.916 17.4886C108.473 17.2689 109.125 17.1591 109.871 17.1591C110.973 17.1591 111.84 17.392 112.473 17.858C113.109 18.3239 113.481 18.9583 113.587 19.7614ZM119.952 17.2727V19.0909H114.696V17.2727H119.952ZM115.889 15.1818H118.31V23.3182C118.31 23.5417 118.344 23.7159 118.412 23.8409C118.48 23.9621 118.575 24.0473 118.696 24.0966C118.821 24.1458 118.965 24.1705 119.128 24.1705C119.241 24.1705 119.355 24.161 119.469 24.142C119.582 24.1193 119.67 24.1023 119.73 24.0909L120.111 25.892C119.99 25.9299 119.819 25.9735 119.599 26.0227C119.38 26.0758 119.113 26.108 118.798 26.1193C118.215 26.142 117.704 26.0644 117.264 25.8864C116.829 25.7083 116.49 25.4318 116.247 25.0568C116.005 24.6818 115.885 24.2083 115.889 23.6364V15.1818Z" fill="#FBFBFB"/>
</g>
</g>
<defs>
<linearGradient id="paint0_linear_557_1980" x1="12.0833" y1="20" x2="132.917" y2="20" gradientUnits="userSpaceOnUse">
<stop stop-color="#FF5757"/>
<stop offset="0.00390625" stop-color="#FF5758"/>
<stop offset="0.0078125" stop-color="#FE5758"/>
<stop offset="0.0117187" stop-color="#FE5759"/>
<stop offset="0.015625" stop-color="#FD575A"/>
<stop offset="0.0195312" stop-color="#FD575A"/>
<stop offset="0.0234375" stop-color="#FC575B"/>
<stop offset="0.0273438" stop-color="#FC575C"/>
<stop offset="0.03125" stop-color="#FB575C"/>
<stop offset="0.0351562" stop-color="#FB575D"/>
<stop offset="0.0390625" stop-color="#FB575E"/>
<stop offset="0.0429687" stop-color="#FA575E"/>
<stop offset="0.046875" stop-color="#FA575F"/>
<stop offset="0.0507812" stop-color="#F9575F"/>
<stop offset="0.0546875" stop-color="#F95760"/>
<stop offset="0.0585938" stop-color="#F85761"/>
<stop offset="0.0625" stop-color="#F85761"/>
<stop offset="0.0664062" stop-color="#F75762"/>
<stop offset="0.0703125" stop-color="#F75763"/>
<stop offset="0.0742187" stop-color="#F65763"/>
<stop offset="0.078125" stop-color="#F65764"/>
<stop offset="0.0820312" stop-color="#F65765"/>
<stop offset="0.0859375" stop-color="#F55765"/>
<stop offset="0.0898437" stop-color="#F55766"/>
<stop offset="0.09375" stop-color="#F45767"/>
<stop offset="0.0976562" stop-color="#F45667"/>
<stop offset="0.101562" stop-color="#F35668"/>
<stop offset="0.105469" stop-color="#F35669"/>
<stop offset="0.109375" stop-color="#F25669"/>
<stop offset="0.113281" stop-color="#F2566A"/>
<stop offset="0.117188" stop-color="#F2566B"/>
<stop offset="0.121094" stop-color="#F1566B"/>
<stop offset="0.125" stop-color="#F1566C"/>
<stop offset="0.128906" stop-color="#F0566D"/>
<stop offset="0.132812" stop-color="#F0566D"/>
<stop offset="0.136719" stop-color="#EF566E"/>
<stop offset="0.140625" stop-color="#EF566F"/>
<stop offset="0.144531" stop-color="#EE566F"/>
<stop offset="0.148437" stop-color="#EE5670"/>
<stop offset="0.152344" stop-color="#ED5671"/>
<stop offset="0.15625" stop-color="#ED5671"/>
<stop offset="0.160156" stop-color="#ED5672"/>
<stop offset="0.164062" stop-color="#EC5673"/>
<stop offset="0.167969" stop-color="#EC5673"/>
<stop offset="0.171875" stop-color="#EB5674"/>
<stop offset="0.175781" stop-color="#EB5674"/>
<stop offset="0.179687" stop-color="#EA5675"/>
<stop offset="0.183594" stop-color="#EA5676"/>
<stop offset="0.1875" stop-color="#E95676"/>
<stop offset="0.191406" stop-color="#E95677"/>
<stop offset="0.195312" stop-color="#E95678"/>
<stop offset="0.199219" stop-color="#E85678"/>
<stop offset="0.203125" stop-color="#E85679"/>
<stop offset="0.207031" stop-color="#E7567A"/>
<stop offset="0.210938" stop-color="#E7567A"/>
<stop offset="0.214844" stop-color="#E6567B"/>
<stop offset="0.21875" stop-color="#E6567C"/>
<stop offset="0.222656" stop-color="#E5567C"/>
<stop offset="0.226562" stop-color="#E5567D"/>
<stop offset="0.230469" stop-color="#E4567E"/>
<stop offset="0.234375" stop-color="#E4567E"/>
<stop offset="0.238281" stop-color="#E4567F"/>
<stop offset="0.242188" stop-color="#E35680"/>
<stop offset="0.246094" stop-color="#E35680"/>
<stop offset="0.25" stop-color="#E25681"/>
<stop offset="0.253906" stop-color="#E25682"/>
<stop offset="0.257812" stop-color="#E15682"/>
<stop offset="0.261719" stop-color="#E15683"/>
<stop offset="0.265625" stop-color="#E05684"/>
<stop offset="0.269531" stop-color="#E05684"/>
<stop offset="0.273437" stop-color="#E05685"/>
<stop offset="0.277344" stop-color="#DF5686"/>
<stop offset="0.28125" stop-color="#DF5686"/>
<stop offset="0.285156" stop-color="#DE5687"/>
<stop offset="0.289062" stop-color="#DE5688"/>
<stop offset="0.292969" stop-color="#DD5688"/>
<stop offset="0.296875" stop-color="#DD5689"/>
<stop offset="0.300781" stop-color="#DC5589"/>
<stop offset="0.304687" stop-color="#DC558A"/>
<stop offset="0.308594" stop-color="#DC558B"/>
<stop offset="0.3125" stop-color="#DB558B"/>
<stop offset="0.316406" stop-color="#DB558C"/>
<stop offset="0.320312" stop-color="#DA558D"/>
<stop offset="0.324219" stop-color="#DA558D"/>
<stop offset="0.328125" stop-color="#D9558E"/>
<stop offset="0.332031" stop-color="#D9558F"/>
<stop offset="0.335937" stop-color="#D8558F"/>
<stop offset="0.339844" stop-color="#D85590"/>
<stop offset="0.34375" stop-color="#D75591"/>
<stop offset="0.347656" stop-color="#D75591"/>
<stop offset="0.351562" stop-color="#D75592"/>
<stop offset="0.355469" stop-color="#D65593"/>
<stop offset="0.359375" stop-color="#D65593"/>
<stop offset="0.363281" stop-color="#D55594"/>
<stop offset="0.367187" stop-color="#D55595"/>
<stop offset="0.371094" stop-color="#D45595"/>
<stop offset="0.375" stop-color="#D45596"/>
<stop offset="0.378906" stop-color="#D35597"/>
<stop offset="0.382812" stop-color="#D35597"/>
<stop offset="0.386719" stop-color="#D35598"/>
<stop offset="0.390625" stop-color="#D25599"/>
<stop offset="0.394531" stop-color="#D25599"/>
<stop offset="0.398438" stop-color="#D1559A"/>
<stop offset="0.402344" stop-color="#D1559B"/>
<stop offset="0.40625" stop-color="#D0559B"/>
<stop offset="0.410156" stop-color="#D0559C"/>
<stop offset="0.414062" stop-color="#CF559D"/>
<stop offset="0.417969" stop-color="#CF559D"/>
<stop offset="0.421875" stop-color="#CE559E"/>
<stop offset="0.425781" stop-color="#CE559F"/>
<stop offset="0.429688" stop-color="#CE559F"/>
<stop offset="0.433594" stop-color="#CD55A0"/>
<stop offset="0.4375" stop-color="#CD55A0"/>
<stop offset="0.441406" stop-color="#CC55A1"/>
<stop offset="0.445312" stop-color="#CC55A2"/>
<stop offset="0.449219" stop-color="#CB55A2"/>
<stop offset="0.453125" stop-color="#CB55A3"/>
<stop offset="0.457031" stop-color="#CA55A4"/>
<stop offset="0.460938" stop-color="#CA55A4"/>
<stop offset="0.464844" stop-color="#CA55A5"/>
<stop offset="0.46875" stop-color="#C955A6"/>
<stop offset="0.472656" stop-color="#C955A6"/>
<stop offset="0.476562" stop-color="#C855A7"/>
<stop offset="0.480469" stop-color="#C855A8"/>
<stop offset="0.484375" stop-color="#C755A8"/>
<stop offset="0.488281" stop-color="#C755A9"/>
<stop offset="0.492188" stop-color="#C655AA"/>
<stop offset="0.496094" stop-color="#C655AA"/>
<stop offset="0.5" stop-color="#C555AB"/>
<stop offset="0.503906" stop-color="#C555AC"/>
<stop offset="0.507812" stop-color="#C554AC"/>
<stop offset="0.511719" stop-color="#C454AD"/>
<stop offset="0.515625" stop-color="#C454AE"/>
<stop offset="0.519531" stop-color="#C354AE"/>
<stop offset="0.523437" stop-color="#C354AF"/>
<stop offset="0.527344" stop-color="#C254B0"/>
<stop offset="0.53125" stop-color="#C254B0"/>
<stop offset="0.535156" stop-color="#C154B1"/>
<stop offset="0.539062" stop-color="#C154B2"/>
<stop offset="0.542969" stop-color="#C154B2"/>
<stop offset="0.546875" stop-color="#C054B3"/>
<stop offset="0.550781" stop-color="#C054B4"/>
<stop offset="0.554687" stop-color="#BF54B4"/>
<stop offset="0.558594" stop-color="#BF54B5"/>
<stop offset="0.5625" stop-color="#BE54B5"/>
<stop offset="0.566406" stop-color="#BE54B6"/>
<stop offset="0.570312" stop-color="#BD54B7"/>
<stop offset="0.574219" stop-color="#BD54B7"/>
<stop offset="0.578125" stop-color="#BD54B8"/>
<stop offset="0.582031" stop-color="#BC54B9"/>
<stop offset="0.585937" stop-color="#BC54B9"/>
<stop offset="0.589844" stop-color="#BB54BA"/>
<stop offset="0.59375" stop-color="#BB54BB"/>
<stop offset="0.597656" stop-color="#BA54BB"/>
<stop offset="0.601562" stop-color="#BA54BC"/>
<stop offset="0.605469" stop-color="#B954BD"/>
<stop offset="0.609375" stop-color="#B954BD"/>
<stop offset="0.613281" stop-color="#B854BE"/>
<stop offset="0.617187" stop-color="#B854BF"/>
<stop offset="0.621094" stop-color="#B854BF"/>
<stop offset="0.625" stop-color="#B754C0"/>
<stop offset="0.628906" stop-color="#B754C1"/>
<stop offset="0.632812" stop-color="#B654C1"/>
<stop offset="0.636719" stop-color="#B654C2"/>
<stop offset="0.640625" stop-color="#B554C3"/>
<stop offset="0.644531" stop-color="#B554C3"/>
<stop offset="0.648437" stop-color="#B454C4"/>
<stop offset="0.652344" stop-color="#B454C5"/>
<stop offset="0.65625" stop-color="#B454C5"/>
<stop offset="0.660156" stop-color="#B354C6"/>
<stop offset="0.664062" stop-color="#B354C7"/>
<stop offset="0.667969" stop-color="#B254C7"/>
<stop offset="0.671875" stop-color="#B254C8"/>
<stop offset="0.675781" stop-color="#B154C9"/>
<stop offset="0.679687" stop-color="#B154C9"/>
<stop offset="0.683594" stop-color="#B054CA"/>
<stop offset="0.6875" stop-color="#B054CA"/>
<stop offset="0.691406" stop-color="#AF54CB"/>
<stop offset="0.695312" stop-color="#AF54CC"/>
<stop offset="0.699219" stop-color="#AF54CC"/>
<stop offset="0.703125" stop-color="#AE54CD"/>
<stop offset="0.707031" stop-color="#AE54CE"/>
<stop offset="0.710937" stop-color="#AD54CE"/>
<stop offset="0.714844" stop-color="#AD53CF"/>
<stop offset="0.71875" stop-color="#AC53D0"/>
<stop offset="0.722656" stop-color="#AC53D0"/>
<stop offset="0.726562" stop-color="#AB53D1"/>
<stop offset="0.730469" stop-color="#AB53D2"/>
<stop offset="0.734375" stop-color="#AB53D2"/>
<stop offset="0.738281" stop-color="#AA53D3"/>
<stop offset="0.742187" stop-color="#AA53D4"/>
<stop offset="0.746094" stop-color="#A953D4"/>
<stop offset="0.75" stop-color="#A953D5"/>
<stop offset="0.753906" stop-color="#A853D6"/>
<stop offset="0.757812" stop-color="#A853D6"/>
<stop offset="0.761719" stop-color="#A753D7"/>
<stop offset="0.765625" stop-color="#A753D8"/>
<stop offset="0.769531" stop-color="#A653D8"/>
<stop offset="0.773438" stop-color="#A653D9"/>
<stop offset="0.777344" stop-color="#A653DA"/>
<stop offset="0.78125" stop-color="#A553DA"/>
<stop offset="0.785156" stop-color="#A553DB"/>
<stop offset="0.789062" stop-color="#A453DC"/>
<stop offset="0.792969" stop-color="#A453DC"/>
<stop offset="0.796875" stop-color="#A353DD"/>
<stop offset="0.800781" stop-color="#A353DE"/>
<stop offset="0.804688" stop-color="#A253DE"/>
<stop offset="0.808594" stop-color="#A253DF"/>
<stop offset="0.8125" stop-color="#A253DF"/>
<stop offset="0.816406" stop-color="#A153E0"/>
<stop offset="0.820312" stop-color="#A153E1"/>
<stop offset="0.824219" stop-color="#A053E1"/>
<stop offset="0.828125" stop-color="#A053E2"/>
<stop offset="0.832031" stop-color="#9F53E3"/>
<stop offset="0.835938" stop-color="#9F53E3"/>
<stop offset="0.839844" stop-color="#9E53E4"/>
<stop offset="0.84375" stop-color="#9E53E5"/>
<stop offset="0.847656" stop-color="#9E53E5"/>
<stop offset="0.851562" stop-color="#9D53E6"/>
<stop offset="0.855469" stop-color="#9D53E7"/>
<stop offset="0.859375" stop-color="#9C53E7"/>
<stop offset="0.863281" stop-color="#9C53E8"/>
<stop offset="0.867188" stop-color="#9B53E9"/>
<stop offset="0.871094" stop-color="#9B53E9"/>
<stop offset="0.875" stop-color="#9A53EA"/>
<stop offset="0.878906" stop-color="#9A53EB"/>
<stop offset="0.882812" stop-color="#9953EB"/>
<stop offset="0.886719" stop-color="#9953EC"/>
<stop offset="0.890625" stop-color="#9953ED"/>
<stop offset="0.894531" stop-color="#9853ED"/>
<stop offset="0.898438" stop-color="#9853EE"/>
<stop offset="0.902344" stop-color="#9753EF"/>
<stop offset="0.90625" stop-color="#9753EF"/>
<stop offset="0.910156" stop-color="#9653F0"/>
<stop offset="0.914062" stop-color="#9653F1"/>
<stop offset="0.917969" stop-color="#9553F1"/>
<stop offset="0.921875" stop-color="#9552F2"/>
<stop offset="0.925781" stop-color="#9552F3"/>
<stop offset="0.929688" stop-color="#9452F3"/>
<stop offset="0.933594" stop-color="#9452F4"/>
<stop offset="0.9375" stop-color="#9352F4"/>
<stop offset="0.941406" stop-color="#9352F5"/>
<stop offset="0.945312" stop-color="#9252F6"/>
<stop offset="0.949219" stop-color="#9252F6"/>
<stop offset="0.953125" stop-color="#9152F7"/>
<stop offset="0.957031" stop-color="#9152F8"/>
<stop offset="0.960938" stop-color="#9052F8"/>
<stop offset="0.964844" stop-color="#9052F9"/>
<stop offset="0.96875" stop-color="#9052FA"/>
<stop offset="0.972656" stop-color="#8F52FA"/>
<stop offset="0.976562" stop-color="#8F52FB"/>
<stop offset="0.980469" stop-color="#8E52FC"/>
<stop offset="0.984375" stop-color="#8E52FC"/>
<stop offset="0.988281" stop-color="#8D52FD"/>
<stop offset="0.992188" stop-color="#8D52FE"/>
<stop offset="0.996094" stop-color="#8C52FE"/>
<stop offset="1" stop-color="#8C52FF"/>
</linearGradient>
<clipPath id="clip0_557_1980">
<rect width="145" height="40" rx="4" fill="white"/>
</clipPath>
<clipPath id="clip1_557_1980">
<path d="M0 8C0 3.58172 3.58172 0 8 0H137C141.418 0 145 3.58172 145 8V32C145 36.4183 141.418 40 137 40H8C3.58173 40 0 36.4183 0 32V8Z" fill="white"/>
</clipPath>
</defs>
</svg>
